<?xml version="1.0" encoding="utf-8"?>
<!-- Generator: Adobe Illustrator 21.0.0, SVG Export Plug-In . SVG Version: 6.00 Build 0)  -->
<svg version="1.1" id="Lag_1" xmlns="http://www.w3.org/2000/svg" xmlns:xlink="http://www.w3.org/1999/xlink" x="0px" y="0px"
	 viewBox="0 0 40 40" style="enable-background:new 0 0 40 40;" xml:space="preserve">
<style type="text/css">
	.st0{fill:none;stroke:#212121;stroke-width:0.25;stroke-miterlimit:10;}
	.st1{fill:#565656;}
</style>
<path class="st0" d="M35,1.4H5C3,1.4,1.4,3,1.5,5v30.1C1.5,37,3,38.6,5,38.6h30c2,0,3.6-1.6,3.5-3.7v-30C38.5,3,37,1.4,35,1.4z"/>
<g>
	<path class="st1" d="M25.6,25.7c0,0.1,0,0.1,0,0.2C25.7,25.8,25.7,25.8,25.6,25.7z"/>
	<path class="st1" d="M29.3,26.8c-0.2-0.3-0.2-0.7-0.3-1.1c0-0.2,0-0.3,0.1-0.5c0.1-0.2,0.1-0.3,0.2-0.5c0.1-0.2,0-0.3-0.1-0.4
		c-0.1-0.1-0.3-0.1-0.4-0.1c-0.3-0.1-0.6-0.1-0.9-0.2c-0.1-0.1-0.2-0.1-0.3,0c-0.2,0.3-0.4,0.4-0.7,0.6c-0.2,0.1-0.4,0.3-0.6,0.4
		c-0.3,0-0.6,0-1,0c-0.1,0-0.3,0-0.4,0c-0.2-0.1-0.3-0.1-0.4-0.2c0,0-0.1-0.1-0.1,0c0,0.1,0,0.2,0.1,0.3c0.2,0.1,0.5,0.2,0.7,0.3
		c0.2,0.1,0.3,0.2,0.4,0.3c0-0.1,0-0.1,0.1-0.2c0.1,0,0.2-0.1,0.3-0.3c0-0.2,0-0.2,0.3-0.2c-0.1,0-0.1,0-0.1,0.1h0.1
		c0.1,0,0.2,0,0.3,0v0.1c-0.1,0.1-0.1,0.3-0.1,0.5c0,0.1-0.1,0.2-0.1,0.3c0,0.2-0.1,0.2-0.2,0.1c0,0,0,0-0.1,0c0,0.1,0,0.1,0,0.2
		c0.1,0.1,0.1,0.2,0.2,0.2c0.1,0.1,0.1,0.1,0.1,0.2c0,0.1-0.1,0.2-0.1,0.3c-0.1,0.1-0.1,0.1-0.2,0C26,26.9,26,26.8,26,26.7
		c-0.1-0.2-0.3-0.4-0.6-0.4c-0.1,0-0.1-0.1-0.1-0.1v-0.1h0.1c0.1,0.1,0.2,0,0.2-0.1c0,0,0-0.1,0-0.1C25.5,26,25.4,26,25.3,26
		c-0.1,0-0.3,0-0.4,0h-0.1c0,0.1,0.1,0.1,0.1,0.1c0.1,0.1,0.1,0.2,0,0.3l-0.1,0.1c-0.2,0.1-0.5,0.2-0.7,0.3H24c0-0.1,0-0.1,0-0.1
		c0.1-0.1,0.1-0.2,0-0.2c-0.1-0.1-0.1,0-0.2,0c-0.1,0-0.1,0.1-0.1,0.1c-0.1,0.2-0.2,0.2-0.4,0.1c-0.1-0.1-0.1-0.1-0.2-0.2
		c-0.1-0.1-0.2-0.1-0.2,0c-0.2,0.2-0.2,0.4,0.1,0.5c0.1,0,0.3,0.1,0.4,0.1c0.1,0.1,0.1,0.1,0.1,0.1h-0.1c-0.1,0-0.1,0-0.2,0
		c-0.1-0.1-0.1-0.1-0.2-0.1s-0.2,0-0.2,0.1c-0.1,0.1,0,0.3,0.1,0.4c0.2,0.3,0.4,0.5,0.6,0.7c0.1,0.1,0.3,0.3,0.3,0.5s0,0.4-0.2,0.5
		c-0.2,0.1-0.2,0.1-0.1,0.3c0.1,0.2,0.2,0.3,0.3,0.5c0,0.1,0,0.3,0.1,0.4c0,0.2,0.1,0.2,0.3,0.2c0.1,0,0.2-0.1,0.3-0.1
		c0.3-0.1,0.6-0.1,0.9,0c0.2,0.1,0.3,0.2,0.4,0.3c0.1,0.2,0.1,0.4,0,0.6c-0.1,0.2-0.1,0.2,0,0.3c0.2,0.2,0.4,0.4,0.6,0.5
		c0.2,0.1,0.4,0.2,0.6,0.2c0.1-0.1,0.3-0.1,0.4-0.2c0.1-0.1,0.1-0.2,0.1-0.3s0-0.2,0.1-0.3c0.1,0,0.1-0.1,0-0.2
		c-0.1-0.1-0.2-0.2-0.2-0.3c-0.1-0.3,0-0.5,0.2-0.6c0.2-0.1,0.4-0.1,0.6-0.2c0.2,0,0.4-0.1,0.6-0.2c0.2-0.1,0.2-0.2,0.1-0.4
		c-0.2-0.3-0.4-0.4-0.6-0.6c-0.1-0.1-0.3-0.1-0.4-0.2c-0.2-0.1-0.2-0.2-0.2-0.3c0-0.2,0.1-0.3,0.2-0.5c0.2-0.2,0.4-0.4,0.7-0.5
		c0.1,0,0.3-0.1,0.4-0.1c0.1-0.1,0.1,0,0.1,0.1c0,0.1,0,0.1,0,0.2c0,0.1,0.1,0.1,0.2,0.1c0.2-0.1,0.3-0.2,0.3-0.4
		c0.1-0.2,0-0.3-0.1-0.5C29.4,27,29.3,26.9,29.3,26.8z M27.1,25.6c0,0,0-0.1-0.1-0.1c0,0-0.1-0.1-0.1-0.2C27,25.4,27,25.5,27.1,25.6
		z M27.3,27.1c-0.1,0.1-0.1,0.1-0.2,0.1c-0.1-0.1-0.2-0.1-0.3-0.2c0.2-0.2,0.3-0.4,0.4-0.8C27.2,26.4,27.3,26.7,27.3,27.1L27.3,27.1
		z"/>
	<path class="st1" d="M22.3,31.1c-0.1,0.1-0.2,0.3-0.3,0.4c-0.3,0.5-0.6,1-0.8,1.6c-0.1,0.3-0.2,0.5-0.2,0.7s0,0.3,0,0.3
		c0,0.1,0.1,0.1,0.2,0c0.1,0,0.1-0.1,0.1-0.1c0.3-0.4,0.4-0.9,0.6-1.3c0.1-0.4,0.3-0.7,0.4-1.1c0-0.1,0.1-0.3,0.1-0.4
		c0-0.1,0.1-0.2,0-0.2L22.3,31.1z"/>
	<path class="st1" d="M20.6,32.9c-0.2,0-0.3-0.1-0.3-0.3c-0.1-0.1-0.1-0.2-0.2-0.1c0,0.1-0.1,0.1-0.1,0.1c-0.1,0.1-0.1,0.1-0.2,0
		c-0.1-0.1-0.3-0.3-0.5-0.4h-0.1v0.1c0,0.1,0,0.1,0,0.1c0.2,0.3,0.4,0.6,0.7,0.9c0.1,0.1,0.2,0.2,0.3,0.2c0.2,0,0.4-0.2,0.5-0.5
		C20.7,32.9,20.6,32.9,20.6,32.9z"/>
	<path class="st1" d="M21,32.6c0-0.1-0.1-0.3-0.1-0.4c0,0,0-0.1-0.1,0c-0.1,0.1-0.2,0.2-0.3,0.3c-0.1,0-0.1,0.1,0,0.2
		c0.1,0.1,0.3,0.2,0.4,0.2C21.1,32.9,21.2,32.8,21,32.6z"/>
	<path class="st1" d="M17.7,27.6c-0.1,0-0.1-0.1-0.2-0.1c-0.2-0.2-0.5-0.3-0.7-0.4c-0.1,0-0.1,0-0.1-0.1h0.1c0.2,0,0.4,0.1,0.6,0.1
		c0.3,0,0.5,0.1,0.8,0c0.4-0.1,0.6-0.5,0.4-0.9c0-0.1-0.1-0.1-0.2-0.1c-0.1,0-0.1,0-0.2,0c-0.1,0-0.2,0-0.2-0.1s0-0.2,0.1-0.2
		c0.1,0,0.1,0,0.2,0s0.2,0,0.3,0c0.1,0,0.1,0,0.2,0c0.1,0.1,0.2,0,0.3,0.1c0.2,0,0.2,0,0.3-0.1c0.2-0.2,0.2-0.5,0.3-0.7
		c0.1-0.1,0.1-0.2,0.1-0.2c0-0.1,0-0.2,0-0.3c-0.1-0.2-0.2-0.4-0.1-0.7v-0.1c0.1-0.3,0.2-0.6,0.3-0.8c0.1-0.1,0.2-0.3,0.3-0.4
		c0.1-0.1,0.3-0.1,0.3,0.1c0.1,0.1,0,0.2,0,0.3c0,0,0,0,0,0.1c0,0.3,0,0.6,0.1,0.9c0,0.1,0.1,0,0.1,0c0-0.1,0-0.3,0.1-0.4
		c0-0.1,0-0.2,0.1-0.3c0,0,0-0.1,0.1-0.1c0,0,0,0,0.1,0c0.1,0,0.1,0.1,0.1,0.2c0,0.1,0,0.1,0,0.2c0,0.1,0,0.1,0.1,0.1l0.1-0.1
		c0-0.1,0-0.2,0.1-0.3c0-0.1,0-0.2,0.1-0.3c0-0.1,0.1-0.1,0.1-0.2c0-0.2,0.1-0.2,0.2-0.3l0.1-0.1l0.1-0.1c0.1-0.1,0.1-0.2,0.1-0.3
		c-0.1-0.1-0.1-0.2-0.1-0.3c-0.1-0.1-0.1-0.2-0.1-0.3c0-0.1-0.1-0.1-0.1-0.2c-0.1,0-0.1-0.1-0.1-0.1c-0.2-0.3-0.4-0.3-0.6-0.3
		c-0.1,0.1-0.3,0.1-0.4,0.1c-0.2,0.1-0.4,0-0.6,0c-0.1,0-0.2,0-0.3-0.1c-0.1,0-0.1,0-0.1-0.1v-0.1c0-0.2-0.2-0.2-0.3-0.1
		c0,0.1,0,0.2-0.1,0.3v0.1c0,0.1-0.1,0.1-0.1,0.2v0.1c-0.1,0.1-0.2,0.1-0.3,0c-0.1-0.1,0-0.1,0-0.2l0.1-0.1l0.1-0.1l0.1-0.1
		c0.1-0.2,0.3-0.4,0.2-0.6c0-0.1,0-0.1,0-0.1c-0.1-0.1-0.1-0.1-0.2-0.2c-0.1,0-0.1-0.1-0.2-0.1c-0.1,0-0.1,0-0.1-0.1h0.1
		c0.1,0,0.3,0,0.4,0c0.1,0,0.1,0,0.1-0.1s0-0.2,0-0.3c0-0.1,0-0.3,0-0.5v-0.1c0-0.1,0-0.2,0-0.3c0-0.2-0.1-0.4-0.1-0.6
		c0-0.1-0.1-0.1-0.1-0.1c-0.1,0-0.2-0.1-0.3-0.1c-0.2,0-0.4-0.1-0.5-0.2c-0.1,0-0.1-0.1-0.1-0.2c0-0.2,0.2-0.4,0.5-0.2
		c0.1,0.1,0.1,0.1,0.2,0.2c0.1,0.1,0.1,0.2,0.2,0.2c0.1,0.1,0.2,0.1,0.3,0c0-0.1,0.1-0.1,0.1-0.2c0.2-0.4,0.4-0.8,0.6-1.3
		c0.2-0.3,0.2-0.7,0.2-1c0-0.5-0.1-0.9-0.3-1.4c-0.1-0.2-0.1-0.5,0.1-0.7c0.1-0.1,0.2-0.2,0.3-0.3c0.1-0.1,0.2-0.2,0.2-0.4
		c0-0.1,0-0.1-0.1-0.1c-0.1,0-0.1,0.1-0.2,0.1c-0.3,0.2-0.5,0.4-0.8,0.6c-0.1,0.1-0.2,0.2-0.3,0.2c-0.3,0.1-0.5,0.2-0.8,0.3
		c-0.3,0.1-0.6,0.3-0.8,0.5c-0.2,0.3-0.4,0.6-0.6,1c-0.2,0.4-0.3,0.7-0.6,1c-0.2,0.3-0.6,0.5-1,0.5c-0.4,0-0.7,0-1.1,0
		c-0.3,0-0.5,0-0.7,0.1c-0.2,0-0.3,0.1-0.5,0.1c-0.1,0-0.3,0-0.4,0.1c-0.3,0.1-0.6,0.3-0.8,0.5c-0.2,0.2-0.5,0.5-0.7,0.8
		c-0.2,0.2-0.3,0.6-0.4,0.9c0,0.2,0,0.4,0,0.6c0,0.1,0,0.1,0,0.1c0,0,0,0,0,0c0,0,0,0,0,0.1c-0.1,0.2-0.2,0.4-0.3,0.6
		c0,0.1,0,0.2-0.1,0.3c0,0.1-0.1,0.3-0.1,0.5s0,0.3-0.1,1.1c0,0.1,0,0.1,0.1,0.1c0,0,0.1-0.1,0.2-0.1H11V22c-0.1,0.1-0.1,0.1,0,0.1
		s0.2,0.1,0.2,0.2c0,0.2-0.1,0.4-0.2,0.6c0,0.1,0,0.1-0.1,0.1c-0.1,0-0.1-0.1-0.1-0.1c0.1-0.2,0-0.3,0.1-0.5c0.1-0.1,0-0.1,0-0.1
		s-0.2,0.1-0.2,0.2c-0.1,0.2-0.1,0.5-0.1,0.7s0,0.5,0,0.7c0,0.1,0,0.3,0,0.4l0.1-0.1c0.1-0.1,0.3,0,0.4,0c0.1,0,0.3,0.3,0.3,0.4v0.1
		c0.1,0.1,0.1,0.2,0.1,0.3s0,0.3,0,0.4c0,0.1,0,0.3-0.1,0.4c0,0.1-0.1,0.3-0.3,0.3c-0.1,0-0.3,0-0.3-0.2c0-0.3,0-0.5,0-0.7
		c0,0,0-0.1-0.1-0.1c-0.1,0-0.1,0.1-0.1,0.1c0,0.1,0,0.2,0,0.4c0,0.4,0,0.9,0,1.3c0,0.4-0.1,0.7-0.3,1c0,0.1,0,0.1,0,0.2
		c0,0.1,0.1,0.1,0.1,0.1c0.2,0,0.3,0.1,0.4,0.2c0.1,0.2,0.2,0.3,0.3,0.4c0.2,0.2,0.2,0.1,0.3,0c0.1-0.2,0.1-0.4,0.1-0.6
		c0-0.1,0-0.2,0-0.3v-0.1c0.1,0,0.1,0.1,0.1,0.1c0.1,0.2,0.1,0.3,0.2,0.5c0.1,0.2,0.3,0.4,0.5,0.5c0.1,0,0.2,0.1,0.3,0.2
		c0.1,0.2,0.1,0.4,0.1,0.6c0,0.6-0.1,1.2-0.1,1.8c0,0.4,0,0.8,0,1.2c0,0.1,0.1,0.2,0.1,0.3s0.1,0.1,0.2,0.1H13
		c0.2-0.1,0.4-0.2,0.7-0.1c0.1,0,0.3,0.1,0.4,0.1c0.3,0.1,0.6,0.3,0.9,0.5c0,0.1,0.1,0.1,0.2,0.1c0.2,0,0.4,0,0.6-0.1
		c0.3-0.1,0.5-0.2,0.7-0.5c0.1,0,0.1-0.1,0.2-0.1c0,0,0.1,0,0.1,0.1c0.1,0.2,0.1,0.4,0.2,0.5c0.1,0.1,0.1,0.1,0.2,0
		c0-0.1,0-0.2,0-0.3c0-0.2,0-0.3,0-0.5c0-0.1,0-0.1,0.1-0.1c0.1,0.1,0.1,0.1,0.2,0.2c0.1,0.1,0.2,0.3,0.3,0.4
		c0.1,0.1,0.2,0.1,0.3,0.1c0.2,0,0.3-0.3,0.3-0.5c0-0.1,0-0.2-0.1-0.3c-0.1-0.1-0.2-0.3-0.3-0.4c-0.1,0-0.1-0.1-0.1-0.1
		c-0.2-0.2-0.3-0.3-0.5-0.4c-0.2-0.2-0.5-0.1-0.7,0c-0.1,0.1-0.1,0.1-0.1,0.1h0.1c0.1,0,0.1,0,0.2,0c0.2,0.2,0.4,0.4,0.6,0.6v0.1
		h-0.1c-0.2-0.1-0.4-0.1-0.5-0.2c-0.1-0.1-0.2-0.2-0.3-0.3c-0.1-0.2-0.2-0.2-0.4-0.1C16.1,32,16,32,15.9,32.1c0,0,0,0-0.1,0V32
		c0-0.1,0-0.3,0.1-0.4c0.1-0.2,0.2-0.4,0.3-0.6c0.1-0.1,0.2-0.1,0.3-0.1s0.2,0,0.3,0c0.2,0,0.2-0.1,0.2-0.3c0-0.2-0.1-0.4-0.2-0.6
		c-0.1-0.3-0.2-0.5-0.2-0.8c0-0.1,0.1-0.2,0.2-0.3c0.1,0,0.1-0.1,0.2-0.1v-0.1c0-0.1,0-0.1-0.1-0.1c-0.1,0-0.2,0-0.3,0l-0.1-0.1
		c0-0.1,0.1-0.1,0.1-0.1c0.2-0.2,0.3-0.2,0.5-0.3c0.2-0.1,0.3-0.1,0.5-0.2C17.8,27.8,17.8,27.7,17.7,27.6z M12.3,20.4
		c-0.1,0.1-0.2,0-0.3,0s-0.2-0.1-0.4-0.1c-0.1,0-0.2,0-0.3,0c-0.1-0.1-0.2-0.2-0.1-0.3l0.1-0.1c0-0.2,0.1-0.3,0.1-0.4s0-0.2-0.1-0.2
		c0-0.1,0.1-0.1,0.1-0.2c0-0.1,0.1-0.1,0.1,0c0.1,0.1,0.1,0.1,0.2,0.2c0.2,0.3,0.4,0.6,0.6,0.9C12.4,20.3,12.4,20.3,12.3,20.4z"/>
	<path class="st1" d="M19.4,31.3c0.3,0.1,0.6,0.3,0.9,0.4c0.1,0.1,0.2,0.1,0.3,0.1c0.2,0,0.5-0.1,0.8-0.2l0.1-0.1
		c0-0.1,0.1-0.2,0.1-0.4c0-0.3-0.1-0.5-0.1-0.8c0-0.1-0.1-0.2,0-0.3s0.2-0.1,0.3-0.1c0.1,0,0.1,0,0.1,0c0-0.1,0-0.1,0-0.1
		c-0.1-0.1-0.2-0.3-0.3-0.4c-0.2-0.2-0.3-0.4-0.4-0.6c0,0-0.1-0.1,0-0.1c0.1,0,0.1-0.1,0.1-0.2c0-0.2-0.1-0.5-0.2-0.7
		c0-0.1,0-0.2-0.1-0.3h-0.1v0.1c0,0.2,0,0.5,0,0.7c0,0.1,0,0.3-0.1,0.4c0,0.1-0.2,0.2-0.3,0.1c-0.1,0-0.1,0-0.2-0.1
		c-0.1-0.1-0.1-0.1,0-0.2c0-0.1,0.1-0.1,0.2-0.2c0.1-0.1,0.1-0.2,0-0.3c-0.1-0.2-0.3-0.3-0.5-0.4c-0.1,0-0.2-0.1-0.3-0.1
		c-0.2,0-0.3,0.1-0.5,0.2c-0.2,0.1-0.5,0.3-0.7,0.4c-0.1,0.1-0.2,0.1-0.5,0c-0.2,0.1-0.5,0.2-0.7,0c0-0.1-0.1,0-0.2,0L17,28.2
		c-0.1,0-0.1,0.1,0,0.1c0,0,0.1,0.1,0.2,0.1v0.1h-0.1c-0.1,0.1-0.1,0.1,0,0.2c0.3,0.4,0.6,0.9,0.6,1.4c0,0,0,0.1,0.1,0.1
		c0.1,0,0.2,0.1,0.3,0.2c0.1,0,0.1,0,0.1,0c0.2,0,0.4,0,0.6,0.1c0.1,0.1,0.2,0.2,0.1,0.3c0,0.1-0.1,0.2-0.2,0.3
		c-0.1,0.1-0.1,0.1,0,0.2c0.2,0.2,0.4,0.1,0.5,0C19.3,31.3,19.3,31.3,19.4,31.3z"/>
	<rect x="3.9" y="3.9" class="st1" width="32.2" height="4.1"/>
</g>
</svg>
