<?xml version="1.0" encoding="utf-8"?>
<!-- Generator: Adobe Illustrator 21.0.0, SVG Export Plug-In . SVG Version: 6.00 Build 0)  -->
<svg version="1.1" id="Lag_1" xmlns="http://www.w3.org/2000/svg" xmlns:xlink="http://www.w3.org/1999/xlink" x="0px" y="0px"
	 viewBox="0 0 40 40" style="enable-background:new 0 0 40 40;" xml:space="preserve">
<style type="text/css">
	.st0{fill:none;stroke:#212121;stroke-width:0.25;stroke-miterlimit:10;}
	.st1{fill:#565656;}
</style>
<path class="st0" d="M35,38.6H5c-2,0-3.5-1.6-3.5-3.5V5C1.4,3,3,1.4,5,1.4h30c2,0,3.5,1.6,3.5,3.5v30C38.6,37,37,38.6,35,38.6z"/>
<rect x="4.6" y="3.9" class="st1" width="32.2" height="4.1"/>
<rect x="16" y="12.4" class="st1" width="9.4" height="5.7"/>
<rect x="16" y="19.9" class="st1" width="9.4" height="5.7"/>
<rect x="16" y="27.4" class="st1" width="9.4" height="5.7"/>
<rect x="27.5" y="12.4" class="st1" width="9.4" height="5.7"/>
<rect x="27.5" y="19.9" class="st1" width="9.4" height="5.7"/>
<rect x="27.5" y="27.4" class="st1" width="9.4" height="5.7"/>
<rect x="4.6" y="12.4" class="st1" width="9.4" height="5.7"/>
<rect x="4.6" y="19.9" class="st1" width="9.4" height="5.7"/>
<rect x="4.6" y="27.4" class="st1" width="9.4" height="5.7"/>
</svg>
