<svg xmlns="http://www.w3.org/2000/svg" viewBox="0 0 40 40"><path d="M35.5 4.9H4.7C3.2 4.9 1.8 6 1.8 7.7v26.7c0 .7 0 .7.7.7h35.1c.6 0 .6 0 .6-.6V7.6c0-1.7-1-2.7-2.7-2.7zM5.9 23.1v-7.4c0-.4.1-.6.5-.6h11.5c.6 0 .6 0 .6.6v14.9c0 .3-.1.5-.5.5H6.5c-.6 0-.6 0-.6-.6v-7.4zm14 7.6v-3.1-3.1c0-.3.1-.4.4-.4H26c.3 0 .4.1.4.4v6.3c-.1.1-.2.3-.5.3h-5.6c-.3 0-.4-.1-.4-.4zm8 0v-3.2-3.1c0-.3.1-.4.4-.4h5.3c.3 0 .4.1.4.4.1 2 .1 4.2.1 6.3 0 .3-.1.4-.4.4h-5.4c-.3 0-.4-.1-.4-.4zm6.2-8.6c0 .4-.1.5-.5.5H20.3c-.4 0-.5-.1-.5-.5v-6.5c0-.4.1-.5.5-.5h13.3c.4 0 .5.1.5.5v6.5zM16.8 7.6c.8 0 1.4.6 1.3 1.4 0 .7-.7 1.3-1.4 1.3s-1.3-.6-1.3-1.4c0-.7.6-1.3 1.4-1.3zm-5.5 0c.7 0 1.4.6 1.4 1.3 0 .8-.6 1.4-1.4 1.4-.7 0-1.3-.6-1.3-1.4 0-.7.6-1.3 1.3-1.3zm-5.4 0c.7 0 1.3.6 1.4 1.4 0 .7-.6 1.4-1.3 1.4s-1.4-.6-1.4-1.3c-.1-.9.5-1.5 1.3-1.5z"/></svg>