<?xml version="1.0" encoding="utf-8"?>
<!-- Generator: Adobe Illustrator 21.0.0, SVG Export Plug-In . SVG Version: 6.00 Build 0)  -->
<svg version="1.1" id="Lag_1" xmlns="http://www.w3.org/2000/svg" xmlns:xlink="http://www.w3.org/1999/xlink" x="0px" y="0px"
	 viewBox="0 0 40 40" style="enable-background:new 0 0 40 40;" xml:space="preserve">
<style type="text/css">
	.st0{fill:#565656;}
</style>
<path class="st0" d="M35,1.4H5C3,1.4,1.4,3,1.5,5v30.1C1.5,37,3,38.6,5,38.6h30c2,0,3.6-1.6,3.5-3.7v-30C38.5,3,37,1.4,35,1.4z
	 M3.8,3.9H36V8H3.8V3.9z M13.3,33.1H3.8v-5.7h9.4V33.1z M13.3,25.6H3.8v-5.7h9.4V25.6z M13.3,18.1H3.8v-5.7h9.4V18.1z M24.7,33.1
	h-9.4v-5.7h9.4V33.1z M24.7,25.6h-9.4v-5.7h9.4V25.6z M24.7,18.1h-9.4v-5.7h9.4V18.1z M36.2,33.1h-9.4v-5.7h9.4V33.1z M36.2,25.6
	h-9.4v-5.7h9.4V25.6z M36.2,18.1h-9.4v-5.7h9.4V18.1z"/>
</svg>
