<?xml version="1.0" encoding="utf-8"?>
<!-- Generator: Adobe Illustrator 21.0.0, SVG Export Plug-In . SVG Version: 6.00 Build 0)  -->
<svg version="1.1" id="Lag_1" xmlns="http://www.w3.org/2000/svg" xmlns:xlink="http://www.w3.org/1999/xlink" x="0px" y="0px"
	 viewBox="0 0 40 40" style="enable-background:new 0 0 40 40;" xml:space="preserve">
<style type="text/css">
	.st0{fill:none;}
	.st1{fill:#515151;}
</style>
<path class="st0" d="M5.9,10.3c0.7,0,1.3-0.6,1.3-1.4c0-0.7-0.6-1.4-1.4-1.4C5.1,7.6,4.5,8.2,4.5,9C4.5,9.7,5.2,10.3,5.9,10.3z"/>
<path class="st0" d="M16.7,10.3c0.7,0,1.4-0.6,1.4-1.3c0-0.8-0.6-1.4-1.3-1.4c-0.7,0-1.4,0.6-1.4,1.3C15.4,9.7,16,10.3,16.7,10.3z"
	/>
<path class="st0" d="M11.3,10.3c0.8,0,1.4-0.6,1.4-1.4c0-0.7-0.6-1.3-1.4-1.3c-0.7,0-1.4,0.6-1.3,1.4C10,9.7,10.6,10.3,11.3,10.3z"
	/>
<path class="st0" d="M36.9,32.9c0-6.6,0-13.3,0-19.9c0-0.7,0-0.7-0.7-0.7c-5.4,0-10.8,0-16.2,0c-5.4,0-10.8,0-16.2,0
	c-0.7,0-0.7,0-0.7,0.7c0,6.7,0,13.4,0,20.2c0,0.6,0,0.6,0.6,0.6c0,0,0.1,0,0.1,0c9.4,0,18.7,0,28.1,0c1.5,0,2.9,0,4.4,0
	c0.3,0,0.5-0.1,0.4-0.4C36.8,33.2,36.9,33.1,36.9,32.9z M18,31.1c-3.8,0-7.7,0-11.5,0c-0.6,0-0.6,0-0.6-0.6c0-2.5,0-5,0-7.4
	c0,0,0,0,0,0c0-2.5,0-5,0-7.4c0-0.4,0.1-0.6,0.5-0.6c3.8,0,7.7,0,11.5,0c0.6,0,0.6,0,0.6,0.6c0,5,0,9.9,0,14.9
	C18.5,30.9,18.4,31.1,18,31.1z M25.9,31.1c-1.9,0-3.7,0-5.6,0c-0.3,0-0.4-0.1-0.4-0.4c0-1,0-2.1,0-3.1c0-1,0-2.1,0-3.1
	c0-0.3,0.1-0.4,0.4-0.4c1.9,0,3.8,0,5.7,0c0.3,0,0.4,0.1,0.4,0.4c0,2.1,0,4.2,0,6.3C26.3,30.9,26.2,31.1,25.9,31.1z M34.1,30.7
	c0,0.3-0.1,0.4-0.4,0.4c-1.8,0-3.6,0-5.4,0c-0.3,0-0.4-0.1-0.4-0.4c0-1.1,0-2.1,0-3.2c0-1,0-2.1,0-3.1c0-0.3,0.1-0.4,0.4-0.4
	c1.8,0,3.5,0,5.3,0c0.3,0,0.4,0.1,0.4,0.4C34.1,26.4,34.1,28.6,34.1,30.7z M34.1,22.1c0,0.4-0.1,0.5-0.5,0.5c-2.2,0-4.5,0-6.7,0
	c0,0,0,0,0,0c-2.2,0-4.4,0-6.6,0c-0.4,0-0.5-0.1-0.5-0.5c0-2.2,0-4.3,0-6.5c0-0.4,0.1-0.5,0.5-0.5c4.4,0,8.9,0,13.3,0
	c0.4,0,0.5,0.1,0.5,0.5C34.1,17.7,34.1,19.9,34.1,22.1z"/>
<g>
	<path class="st1" d="M38.2,7.6c0-1.7-1-2.7-2.7-2.7c-5.8,0-11.7,0-17.5,0c-4.4,0-8.9,0-13.3,0C3.2,4.9,1.8,6,1.8,7.7
		c0,8.9,0,17.8,0,26.7c0,0.7,0,0.7,0.7,0.7c5.8,0,11.7,0,17.5,0c0,0,0,0,0,0c5.9,0,11.7,0,17.6,0c0.6,0,0.6,0,0.6-0.6
		C38.2,25.6,38.2,16.6,38.2,7.6z M16.8,7.6c0.8,0,1.4,0.6,1.3,1.4c0,0.7-0.7,1.3-1.4,1.3c-0.7,0-1.3-0.6-1.3-1.4
		C15.4,8.2,16,7.6,16.8,7.6z M11.3,7.6c0.7,0,1.4,0.6,1.4,1.3c0,0.8-0.6,1.4-1.4,1.4c-0.7,0-1.3-0.6-1.3-1.4
		C10,8.2,10.6,7.6,11.3,7.6z M5.9,7.6c0.7,0,1.3,0.6,1.4,1.4c0,0.7-0.6,1.4-1.3,1.4c-0.7,0-1.4-0.6-1.4-1.3C4.5,8.2,5.1,7.6,5.9,7.6
		z M36.4,33.8c-1.5,0-2.9,0-4.4,0c-9.4,0-18.7,0-28.1,0c0,0-0.1,0-0.1,0c-0.6,0-0.6,0-0.6-0.6c0-6.7,0-13.4,0-20.2
		c0-0.7,0-0.7,0.7-0.7c5.4,0,10.8,0,16.2,0c5.4,0,10.8,0,16.2,0c0.7,0,0.7,0,0.7,0.7c0,6.6,0,13.3,0,19.9c0,0.2,0,0.3,0,0.5
		C36.9,33.7,36.7,33.8,36.4,33.8z"/>
	<path class="st1" d="M17.9,15.1c-3.8,0-7.7,0-11.5,0c-0.4,0-0.5,0.1-0.5,0.6c0,2.5,0,5,0,7.4c0,0,0,0,0,0c0,2.5,0,5,0,7.4
		c0,0.6,0,0.6,0.6,0.6c3.8,0,7.7,0,11.5,0c0.4,0,0.5-0.1,0.5-0.5c0-5,0-9.9,0-14.9C18.5,15.1,18.5,15.1,17.9,15.1z"/>
	<path class="st1" d="M33.6,15.1c-4.4,0-8.9,0-13.3,0c-0.4,0-0.5,0.1-0.5,0.5c0,2.2,0,4.3,0,6.5c0,0.4,0.1,0.5,0.5,0.5
		c2.2,0,4.4,0,6.6,0c0,0,0,0,0,0c2.2,0,4.5,0,6.7,0c0.3,0,0.5-0.1,0.5-0.5c0-2.2,0-4.4,0-6.5C34.1,15.2,34,15.1,33.6,15.1z"/>
	<path class="st1" d="M25.9,23.9c-1.9,0-3.8,0-5.7,0c-0.3,0-0.4,0.1-0.4,0.4c0,1,0,2.1,0,3.1c0,1,0,2.1,0,3.1c0,0.3,0.1,0.5,0.4,0.4
		c1.9,0,3.7,0,5.6,0c0.3,0,0.4-0.1,0.4-0.4c0-2.1,0-4.2,0-6.3C26.3,24,26.2,23.9,25.9,23.9z"/>
	<path class="st1" d="M33.7,23.9c-1.8,0-3.5,0-5.3,0c-0.3,0-0.4,0.1-0.4,0.4c0,1,0,2.1,0,3.1c0,1.1,0,2.1,0,3.2
		c0,0.3,0.1,0.4,0.4,0.4c1.8,0,3.6,0,5.4,0c0.3,0,0.4-0.1,0.4-0.4c0-2.1,0-4.2,0-6.3C34.1,24,34,23.9,33.7,23.9z"/>
</g>
</svg>
