<?xml version="1.0" encoding="utf-8"?>
<!-- Generator: Adobe Illustrator 21.0.0, SVG Export Plug-In . SVG Version: 6.00 Build 0)  -->
<svg version="1.1" id="Lag_1" xmlns="http://www.w3.org/2000/svg" xmlns:xlink="http://www.w3.org/1999/xlink" x="0px" y="0px"
	 viewBox="0 0 40 40" style="enable-background:new 0 0 40 40;" xml:space="preserve">
<style type="text/css">
	.st0{fill:#565656;}
</style>
<g>
	<path class="st0" d="M26.8,27c0.1,0.1,0.2,0.1,0.3,0.2c0.1,0,0.1,0,0.2-0.1V27c0-0.3-0.1-0.6-0.1-0.8C27.1,26.6,27,26.8,26.8,27z"
		/>
	<path class="st0" d="M27.1,25.6c0-0.1-0.1-0.3-0.2-0.3c0,0.1,0,0.2,0.1,0.2C27,25.5,27,25.6,27.1,25.6z"/>
	<path class="st0" d="M25.4,26.1h-0.1v0.1c0,0,0,0.1,0.1,0.1c0.3,0,0.5,0.2,0.6,0.4c0,0.1,0,0.2,0.1,0.3c0.1,0.1,0.1,0.1,0.2,0
		c0-0.1,0.1-0.2,0.1-0.3c0-0.1,0-0.1-0.1-0.2c-0.1,0-0.1-0.1-0.2-0.2c0-0.1,0-0.1,0-0.2c0.1,0,0.1,0,0.1,0c0.1,0.1,0.2,0.1,0.2-0.1
		c0-0.1,0.1-0.2,0.1-0.3c0-0.2,0-0.4,0.1-0.5v-0.1c-0.1,0-0.2,0-0.3,0h-0.1c0-0.1,0-0.1,0.1-0.1C26,25,26,25,26,25.2
		c-0.1,0.2-0.2,0.3-0.3,0.3c-0.1,0.1-0.1,0.1-0.1,0.2c0.1,0.1,0.1,0.1,0,0.2c0,0,0,0.1,0,0.1C25.6,26.1,25.5,26.2,25.4,26.1z"/>
	<path class="st0" d="M11.7,19.3c-0.1-0.1-0.1-0.1-0.2-0.2c0-0.1-0.1-0.1-0.1,0c0,0.1-0.1,0.1-0.1,0.2c0.1,0,0.1,0.1,0.1,0.2
		s-0.1,0.2-0.1,0.4L11.2,20c-0.1,0.1,0,0.2,0.1,0.3c0.1,0,0.2,0,0.3,0c0.2,0,0.3,0.1,0.4,0.1s0.2,0.1,0.3,0c0.1-0.1,0.1-0.1,0-0.2
		C12.1,19.9,11.9,19.6,11.7,19.3z"/>
	<path class="st0" d="M35,1.4H5C3,1.4,1.4,3,1.5,5v30.1C1.5,37,3,38.6,5,38.6h30c2,0,3.6-1.6,3.5-3.7v-30C38.5,3,37,1.4,35,1.4z
		 M18.7,31.3c-0.1-0.1-0.1-0.1,0-0.2c0.1-0.1,0.2-0.2,0.2-0.3c0.1-0.1,0-0.2-0.1-0.3c-0.2-0.1-0.4-0.1-0.6-0.1c0,0,0,0-0.1,0
		c-0.1-0.1-0.2-0.2-0.3-0.2c-0.1,0-0.1-0.1-0.1-0.1c0-0.5-0.3-1-0.6-1.4c-0.1-0.1-0.1-0.1,0-0.2h0.1v-0.1c-0.1,0-0.2-0.1-0.2-0.1
		c-0.1,0-0.1-0.1,0-0.1l0.1-0.1c-0.2,0.1-0.3,0.1-0.5,0.3c0,0-0.1,0-0.1,0.1l0.1,0.1c0.1,0,0.2,0,0.3,0c0.1,0,0.1,0,0.1,0.1v0.1
		c-0.1,0-0.1,0.1-0.2,0.1c-0.1,0.1-0.2,0.2-0.2,0.3c0,0.3,0.1,0.5,0.2,0.8c0.1,0.2,0.2,0.4,0.2,0.6c0,0.2,0,0.3-0.2,0.3
		c-0.1,0-0.2,0-0.3,0s-0.2,0-0.3,0.1c-0.1,0.2-0.2,0.4-0.3,0.6c-0.1,0.1-0.1,0.3-0.1,0.4v0.1c0.1,0,0.1,0,0.1,0
		c0.1-0.1,0.2-0.1,0.3-0.2c0.2-0.1,0.3-0.1,0.4,0.1c0.1,0.1,0.2,0.2,0.3,0.3c0.1,0.1,0.3,0.1,0.5,0.2h0.1v-0.1
		c-0.2-0.2-0.4-0.4-0.6-0.6c-0.1,0-0.1,0-0.2,0h-0.1c0,0,0,0,0.1-0.1c0.2-0.1,0.5-0.2,0.7,0c0.2,0.1,0.3,0.2,0.5,0.4
		c0,0,0,0.1,0.1,0.1c0.1,0.1,0.2,0.3,0.3,0.4c0.1,0.1,0.1,0.2,0.1,0.3c0,0.2-0.1,0.5-0.3,0.5c-0.1,0-0.2,0-0.3-0.1
		c-0.1-0.1-0.2-0.3-0.3-0.4c-0.1-0.1-0.1-0.1-0.2-0.2c-0.1,0-0.1,0-0.1,0.1c0,0.2,0,0.3,0,0.5c0,0.1,0,0.2,0,0.3
		c-0.1,0.1-0.1,0.1-0.2,0c-0.1-0.1-0.1-0.3-0.2-0.5c0-0.1-0.1-0.1-0.1-0.1c-0.1,0-0.1,0.1-0.2,0.1c-0.2,0.3-0.4,0.4-0.7,0.5
		c-0.2,0.1-0.4,0.1-0.6,0.1c-0.1,0-0.2,0-0.2-0.1c-0.3-0.2-0.6-0.4-0.9-0.5c-0.1,0-0.3-0.1-0.4-0.1c-0.3-0.1-0.5,0-0.7,0.1h-0.1
		c-0.1,0-0.2,0-0.2-0.1s-0.1-0.2-0.1-0.3c0-0.4,0-0.8,0-1.2c0-0.6,0.1-1.2,0.1-1.8c0-0.2,0-0.4-0.1-0.6c-0.1-0.1-0.2-0.2-0.3-0.2
		c-0.2-0.1-0.4-0.3-0.5-0.5c-0.1-0.2-0.1-0.3-0.2-0.5c0,0,0-0.1-0.1-0.1v0.1c0,0.1,0,0.2,0,0.3c0,0.2,0,0.4-0.1,0.6
		c-0.1,0.1-0.1,0.2-0.3,0c-0.1-0.1-0.2-0.2-0.3-0.4c-0.1-0.1-0.2-0.2-0.4-0.2c0,0-0.1,0-0.1-0.1c0-0.1,0-0.1,0-0.2
		c0.2-0.3,0.3-0.6,0.3-1c0-0.4,0-0.9,0-1.3c0-0.2,0-0.3,0-0.4c0,0,0-0.1,0.1-0.1c0.1,0,0.1,0.1,0.1,0.1c0,0.2,0,0.4,0,0.7
		c0,0.2,0.2,0.2,0.3,0.2c0.2,0,0.3-0.2,0.3-0.3c0.1-0.1,0.1-0.3,0.1-0.4c0-0.1,0-0.3,0-0.4s0-0.2-0.1-0.3v-0.1
		c0-0.1-0.2-0.4-0.3-0.4c-0.1,0-0.3-0.1-0.4,0l-0.1,0.1c0-0.1,0-0.3,0-0.4c0-0.2,0-0.5,0-0.7s0-0.5,0.1-0.7c0-0.1,0.2-0.2,0.2-0.2
		s0.1,0,0,0.1c-0.1,0.2,0,0.3-0.1,0.5c0,0,0,0.1,0.1,0.1c0.1,0,0.1,0,0.1-0.1c0.1-0.2,0.2-0.4,0.2-0.6c0-0.1-0.1-0.2-0.2-0.2
		s-0.1,0,0-0.1v-0.1h-0.1c-0.1,0-0.2,0.1-0.2,0.1c-0.1,0-0.1,0-0.1-0.1c0.1-0.8,0.1-0.9,0.1-1.1s0.1-0.4,0.1-0.5
		c0.1-0.1,0.1-0.2,0.1-0.3c0.1-0.2,0.2-0.4,0.3-0.6c0,0,0-0.1,0-0.1c0,0,0,0,0,0c0,0,0,0,0-0.1c0-0.2,0-0.4,0-0.6
		c0.1-0.3,0.2-0.7,0.4-0.9c0.2-0.3,0.5-0.6,0.7-0.8c0.2-0.2,0.5-0.4,0.8-0.5c0.1-0.1,0.3-0.1,0.4-0.1c0.2,0,0.3-0.1,0.5-0.1
		c0.2-0.1,0.4-0.1,0.7-0.1c0.4,0,0.7,0,1.1,0c0.4,0,0.8-0.2,1-0.5c0.3-0.3,0.4-0.6,0.6-1c0.2-0.4,0.4-0.7,0.6-1
		c0.2-0.2,0.5-0.4,0.8-0.5c0.3-0.1,0.5-0.2,0.8-0.3c0.1,0,0.2-0.1,0.3-0.2c0.3-0.2,0.5-0.4,0.8-0.6c0.1,0,0.1-0.1,0.2-0.1
		c0.1,0,0.1,0,0.1,0.1c0,0.2-0.1,0.3-0.2,0.4c-0.1,0.1-0.2,0.2-0.3,0.3c-0.2,0.2-0.2,0.5-0.1,0.7c0.2,0.5,0.3,0.9,0.3,1.4
		c0,0.3,0,0.7-0.2,1c-0.2,0.5-0.4,0.9-0.6,1.3c0,0.1-0.1,0.1-0.1,0.2c-0.1,0.1-0.2,0.1-0.3,0c-0.1,0-0.1-0.1-0.2-0.2
		c-0.1-0.1-0.1-0.1-0.2-0.2c-0.3-0.2-0.5,0-0.5,0.2c0,0.1,0,0.2,0.1,0.2c0.1,0.1,0.3,0.2,0.5,0.2c0.1,0,0.2,0.1,0.3,0.1
		c0,0,0.1,0,0.1,0.1c0,0.2,0.1,0.4,0.1,0.6c0,0.1,0,0.2,0,0.3v0.1c0,0.2,0,0.4,0,0.5c0,0.1,0,0.2,0,0.3s0,0.1-0.1,0.1
		c-0.1,0-0.3,0-0.4,0h-0.1c0,0.1,0,0.1,0.1,0.1c0.1,0,0.1,0.1,0.2,0.1c0.1,0.1,0.1,0.1,0.2,0.2c0,0,0,0,0,0.1
		c0.1,0.2-0.1,0.4-0.2,0.6l-0.1,0.1l-0.1,0.1L19.1,21c0,0.1-0.1,0.1,0,0.2c0.1,0.1,0.2,0.1,0.3,0v-0.1c0-0.1,0.1-0.1,0.1-0.2v-0.1
		c0.1-0.1,0.1-0.2,0.1-0.3c0.1-0.1,0.3-0.1,0.3,0.1v0.1c0,0.1,0,0.1,0.1,0.1c0.1,0.1,0.2,0.1,0.3,0.1c0.2,0,0.4,0.1,0.6,0
		c0.1,0,0.3,0,0.4-0.1c0.2,0,0.4,0,0.6,0.3c0,0,0,0.1,0.1,0.1c0,0.1,0.1,0.1,0.1,0.2c0,0.1,0,0.2,0.1,0.3c0,0.1,0,0.2,0.1,0.3
		c0,0.1,0,0.2-0.1,0.3l-0.1,0.1L22,22.5c-0.1,0.1-0.2,0.1-0.2,0.3c0,0.1-0.1,0.1-0.1,0.2c-0.1,0.1-0.1,0.2-0.1,0.3
		c-0.1,0.1-0.1,0.2-0.1,0.3l-0.1,0.1c-0.1,0-0.1,0-0.1-0.1c0-0.1,0-0.1,0-0.2c0-0.1,0-0.2-0.1-0.2c-0.1,0-0.1,0-0.1,0
		c-0.1,0-0.1,0.1-0.1,0.1c-0.1,0.1-0.1,0.2-0.1,0.3c-0.1,0.1-0.1,0.3-0.1,0.4c0,0-0.1,0.1-0.1,0c-0.1-0.3-0.1-0.6-0.1-0.9
		c0-0.1,0-0.1,0-0.1c0-0.1,0.1-0.2,0-0.3c0-0.2-0.2-0.2-0.3-0.1c-0.1,0.1-0.2,0.3-0.3,0.4c-0.1,0.2-0.2,0.5-0.3,0.8v0.1
		c-0.1,0.3,0,0.5,0.1,0.7c0,0.1,0,0.2,0,0.3c0,0,0,0.1-0.1,0.2c-0.1,0.2-0.1,0.5-0.3,0.7c-0.1,0.1-0.1,0.1-0.3,0.1
		c-0.1-0.1-0.2,0-0.3-0.1c-0.1,0-0.1,0-0.2,0c-0.1,0-0.2,0-0.3,0s-0.1,0-0.2,0C18,25.8,18,25.9,18,26s0.1,0.1,0.2,0.1
		c0.1,0,0.1,0,0.2,0c0.1,0,0.2,0,0.2,0.1c0.2,0.4,0,0.8-0.4,0.9c-0.3,0.1-0.5,0-0.8,0c-0.2,0-0.4-0.1-0.6-0.1h-0.1
		c0,0.1,0,0.1,0.1,0.1c0.2,0.1,0.5,0.2,0.7,0.4c0.1,0,0.1,0.1,0.2,0.1c0.1,0.1,0.1,0.2-0.1,0.3c-0.2,0.1-0.3,0.1-0.5,0.2
		c0.1,0,0.2-0.1,0.2,0c0.2,0.2,0.5,0.1,0.7,0c0.3,0.1,0.4,0.1,0.5,0c0.2-0.1,0.5-0.3,0.7-0.4c0.2-0.1,0.3-0.2,0.5-0.2
		c0.1,0,0.2,0.1,0.3,0.1c0.2,0.1,0.4,0.2,0.5,0.4c0.1,0.1,0.1,0.2,0,0.3c-0.1,0.1-0.2,0.1-0.2,0.2c-0.1,0.1-0.1,0.1,0,0.2
		c0.1,0.1,0.1,0.1,0.2,0.1c0.1,0.1,0.3,0,0.3-0.1c0.1-0.1,0.1-0.3,0.1-0.4c0-0.2,0-0.5,0-0.7v-0.1H21c0.1,0.1,0.1,0.2,0.1,0.3
		c0.1,0.2,0.2,0.5,0.2,0.7c0,0.1,0,0.2-0.1,0.2c-0.1,0,0,0.1,0,0.1c0.1,0.2,0.2,0.4,0.4,0.6c0.1,0.1,0.2,0.3,0.3,0.4c0,0,0,0,0,0.1
		c0,0,0,0-0.1,0c-0.1,0-0.2,0-0.3,0.1s0,0.2,0,0.3c0,0.3,0.1,0.5,0.1,0.8c0,0.2-0.1,0.3-0.1,0.4l-0.1,0.1c-0.3,0.1-0.6,0.2-0.8,0.2
		c-0.1,0-0.2,0-0.3-0.1c-0.3-0.1-0.6-0.3-0.9-0.4c-0.1,0-0.1,0-0.2,0C19.1,31.4,18.9,31.5,18.7,31.3z M20.2,33.5
		c-0.1,0-0.2-0.1-0.3-0.2c-0.3-0.3-0.5-0.6-0.7-0.9c0,0,0,0,0-0.1v-0.1h0.1c0.2,0.1,0.4,0.3,0.5,0.4c0.1,0.1,0.1,0.1,0.2,0
		c0,0,0.1,0,0.1-0.1c0.1-0.1,0.1,0,0.2,0.1c0,0.2,0.1,0.3,0.3,0.3c0,0,0.1,0,0.1,0.1C20.6,33.3,20.4,33.5,20.2,33.5z M20.5,32.7
		c-0.1-0.1-0.1-0.2,0-0.2c0.1-0.1,0.2-0.2,0.3-0.3c0.1-0.1,0.1,0,0.1,0c0,0.1,0.1,0.3,0.1,0.4c0.2,0.2,0.1,0.3-0.1,0.3
		C20.8,32.9,20.6,32.8,20.5,32.7z M22.4,31.2c0,0.1-0.1,0.3-0.1,0.4c-0.1,0.4-0.3,0.7-0.4,1.1c-0.2,0.4-0.3,0.9-0.6,1.3
		c0,0,0,0.1-0.1,0.1c-0.1,0.1-0.2,0.1-0.2,0c0,0,0-0.1,0-0.3s0.1-0.4,0.2-0.7c0.2-0.6,0.5-1.1,0.8-1.6c0.1-0.1,0.2-0.3,0.3-0.4
		l0.1-0.1C22.5,31,22.4,31.1,22.4,31.2z M29.6,27.6c0,0.2-0.1,0.3-0.3,0.4c-0.1,0-0.2,0-0.2-0.1c0-0.1,0-0.1,0-0.2
		c0-0.1,0-0.2-0.1-0.1c-0.1,0-0.3,0.1-0.4,0.1c-0.3,0.1-0.5,0.3-0.7,0.5c-0.1,0.2-0.2,0.3-0.2,0.5c0,0.1,0,0.2,0.2,0.3
		c0.1,0.1,0.3,0.1,0.4,0.2c0.2,0.2,0.4,0.3,0.6,0.6c0.1,0.2,0.1,0.3-0.1,0.4c-0.2,0.1-0.4,0.2-0.6,0.2c-0.2,0.1-0.4,0.1-0.6,0.2
		c-0.2,0.1-0.3,0.3-0.2,0.6c0,0.1,0.1,0.2,0.2,0.3c0.1,0.1,0.1,0.2,0,0.2c-0.1,0.1-0.1,0.2-0.1,0.3s0,0.2-0.1,0.3
		c-0.1,0.1-0.3,0.1-0.4,0.2c-0.2,0-0.4-0.1-0.6-0.2c-0.2-0.1-0.4-0.3-0.6-0.5c-0.1-0.1-0.1-0.1,0-0.3c0.1-0.2,0.1-0.4,0-0.6
		c-0.1-0.1-0.2-0.2-0.4-0.3c-0.3-0.1-0.6-0.1-0.9,0c-0.1,0-0.2,0.1-0.3,0.1c-0.2,0-0.3,0-0.3-0.2c-0.1-0.1-0.1-0.3-0.1-0.4
		c-0.1-0.2-0.2-0.3-0.3-0.5c-0.1-0.2-0.1-0.2,0.1-0.3c0.2-0.1,0.2-0.3,0.2-0.5s-0.2-0.4-0.3-0.5c-0.2-0.2-0.4-0.4-0.6-0.7
		c-0.1-0.1-0.2-0.3-0.1-0.4c0-0.1,0.1-0.1,0.2-0.1s0.1,0,0.2,0.1c0.1,0,0.1,0,0.2,0h0.1c0,0,0,0-0.1-0.1c-0.1,0-0.3-0.1-0.4-0.1
		c-0.3-0.1-0.3-0.3-0.1-0.5c0-0.1,0.1-0.1,0.2,0c0.1,0.1,0.1,0.1,0.2,0.2c0.2,0.1,0.3,0.1,0.4-0.1c0,0,0-0.1,0.1-0.1
		c0.1,0,0.1-0.1,0.2,0c0.1,0,0.1,0.1,0,0.2c0,0,0,0,0,0.1h0.1c0.2-0.1,0.5-0.2,0.7-0.3l0.1-0.1c0.1-0.1,0.1-0.2,0-0.3
		c0,0-0.1,0-0.1-0.1h0.1c0.1,0,0.3,0,0.4,0c0.1,0,0.2,0,0.3-0.1c0-0.1,0-0.1,0-0.2c-0.1-0.1-0.2-0.2-0.4-0.3
		c-0.2-0.1-0.5-0.2-0.7-0.3c-0.1-0.1-0.1-0.2-0.1-0.3c0-0.1,0.1,0,0.1,0c0.1,0.1,0.2,0.1,0.4,0.2c0.1,0,0.3,0,0.4,0c0.4,0,0.7,0,1,0
		c0.2-0.1,0.4-0.3,0.6-0.4c0.3-0.2,0.5-0.3,0.7-0.6c0.1-0.1,0.2-0.1,0.3,0c0.3,0.1,0.6,0.1,0.9,0.2c0.1,0,0.3,0,0.4,0.1
		c0.1,0.1,0.2,0.2,0.1,0.4c-0.1,0.2-0.1,0.3-0.2,0.5C29,25.4,29,25.5,29,25.7c0.1,0.4,0.1,0.8,0.3,1.1c0,0.1,0.1,0.2,0.2,0.3
		C29.6,27.3,29.7,27.4,29.6,27.6z M36.1,8H3.9V3.9h32.2V8z"/>
</g>
</svg>
