<?xml version="1.0" encoding="utf-8"?>
<!-- Generator: Adobe Illustrator 21.0.0, SVG Export Plug-In . SVG Version: 6.00 Build 0)  -->
<svg version="1.1" id="Lag_1" xmlns="http://www.w3.org/2000/svg" xmlns:xlink="http://www.w3.org/1999/xlink" x="0px" y="0px"
	 viewBox="0 0 40 40" style="enable-background:new 0 0 40 40;" xml:space="preserve">
<style type="text/css">
	.st0{fill:none;stroke:#212121;stroke-width:0.25;stroke-miterlimit:10;}
	.st1{fill:#565656;}
</style>
<path class="st0" d="M35,38.6H5c-2,0-3.5-1.6-3.5-3.5V5C1.4,3,3,1.4,5,1.4h30c2,0,3.5,1.6,3.5,3.5v30C38.6,37,37,38.6,35,38.6z"/>
<g>
	<path class="st1" d="M26.8,27C26.8,27,26.8,27,26.8,27c0.1,0.1,0.2,0.1,0.3,0.2c0.1,0,0.1,0,0.2-0.1c0,0,0-0.1,0-0.1
		c0-0.4-0.1-0.8-0.2-1.2c0-0.2-0.1-0.4-0.2-0.5c-0.1-0.1-0.1-0.1-0.3-0.2c-0.1,0-0.2,0-0.3,0c0,0-0.1,0-0.1,0c0-0.1,0-0.1,0.1-0.1
		c0.2-0.1,0.4-0.3,0.6-0.4c0.3-0.2,0.5-0.3,0.7-0.6c0.1-0.1,0.2-0.1,0.3,0c0.3,0.1,0.6,0.1,0.9,0.2c0.1,0,0.3,0,0.4,0.1
		c0.1,0.1,0.2,0.2,0.1,0.4c-0.1,0.2-0.1,0.3-0.2,0.5c-0.1,0.2-0.1,0.3-0.1,0.5c0.1,0.4,0.1,0.8,0.3,1.1c0,0.1,0.1,0.2,0.2,0.3
		c0.1,0.2,0.2,0.3,0.1,0.5c0,0.2-0.1,0.3-0.3,0.4c-0.1,0-0.2,0-0.2-0.1c0-0.1,0-0.1,0-0.2c0-0.1,0-0.2-0.1-0.1
		c-0.1,0-0.3,0.1-0.4,0.1c-0.3,0.1-0.5,0.3-0.7,0.5c-0.1,0.2-0.2,0.3-0.2,0.5c0,0.1,0,0.2,0.2,0.3c0.1,0.1,0.3,0.1,0.4,0.2
		c0.2,0.2,0.4,0.3,0.6,0.6c0.1,0.2,0.1,0.3-0.1,0.4c-0.2,0.1-0.4,0.2-0.6,0.2c-0.2,0.1-0.4,0.1-0.6,0.2c-0.2,0.1-0.3,0.3-0.2,0.6
		c0,0.1,0.1,0.2,0.2,0.3c0.1,0.1,0.1,0.2,0,0.2c-0.1,0.1-0.1,0.2-0.1,0.3c0,0.1,0,0.2-0.1,0.3c-0.1,0.1-0.3,0.1-0.4,0.2
		c-0.2,0-0.4-0.1-0.6-0.2c-0.2-0.1-0.4-0.3-0.6-0.5c-0.1-0.1-0.1-0.1,0-0.3c0.1-0.2,0.1-0.4,0-0.6c-0.1-0.1-0.2-0.2-0.4-0.3
		c-0.3-0.1-0.6-0.1-0.9,0c-0.1,0-0.2,0.1-0.3,0.1c-0.2,0-0.3,0-0.3-0.2c-0.1-0.1-0.1-0.3-0.1-0.4c-0.1-0.2-0.2-0.3-0.3-0.5
		c0,0,0,0,0,0c-0.1-0.2-0.1-0.2,0.1-0.3c0.2-0.1,0.2-0.3,0.2-0.5c0-0.2-0.2-0.4-0.3-0.5c-0.2-0.2-0.4-0.4-0.6-0.7
		c-0.1-0.1-0.2-0.3-0.1-0.4c0-0.1,0.1-0.1,0.2-0.1c0.1,0,0.1,0,0.2,0.1c0.1,0,0.1,0,0.2,0c0,0,0.1,0,0.1,0c0,0,0,0-0.1-0.1
		c-0.1,0-0.3-0.1-0.4-0.1c-0.3-0.1-0.3-0.3-0.1-0.5c0-0.1,0.1-0.1,0.2,0c0.1,0.1,0.1,0.1,0.2,0.2c0.2,0.1,0.3,0.1,0.4-0.1
		c0,0,0-0.1,0.1-0.1c0.1,0,0.1-0.1,0.2,0c0.1,0,0.1,0.1,0,0.2c0,0,0,0,0,0c0,0,0,0,0,0.1c0,0,0.1,0,0.1,0c0.2-0.1,0.5-0.2,0.7-0.3
		c0,0,0.1-0.1,0.1-0.1c0.1-0.1,0.1-0.2,0-0.3c0,0-0.1,0-0.1-0.1c0,0,0.1,0,0.1,0c0.1,0,0.3,0,0.4,0c0.1,0,0.2,0,0.3-0.1
		c0.1-0.1,0.1-0.1,0-0.2c-0.1-0.1-0.2-0.2-0.4-0.3c-0.2-0.1-0.5-0.2-0.7-0.3c-0.1-0.1-0.1-0.2-0.1-0.3c0-0.1,0.1,0,0.1,0
		c0.1,0.1,0.2,0.1,0.4,0.2c0.1,0,0.3,0,0.4,0c0.4,0,0.7,0,1.1,0C26,25,26,25,26,25.2c-0.1,0.2-0.2,0.3-0.3,0.3
		c-0.1,0.1-0.1,0.1-0.1,0.2c0,0.1,0,0.2,0,0.3c0,0.1-0.1,0.2-0.2,0.1c0,0-0.1,0-0.1,0c0,0,0,0.1,0,0.1c0,0,0,0.1,0.1,0.1
		c0.3,0,0.5,0.2,0.6,0.4c0,0.1,0,0.2,0.1,0.3c0.1,0.1,0.1,0.1,0.2,0c0-0.1,0.1-0.2,0.1-0.3c0-0.1,0-0.1-0.1-0.2
		c-0.1,0-0.1-0.1-0.2-0.2c0-0.1,0-0.1,0-0.2c0.1,0,0.1,0,0.1,0c0.1,0.1,0.2,0.1,0.2-0.1c0-0.1,0.1-0.2,0.1-0.3c0-0.2,0-0.4,0.1-0.5
		c0,0,0-0.1,0-0.1c0,0,0-0.1,0.1-0.1c0,0,0.1,0,0.1,0.1c0.1,0.1,0.1,0.3,0.2,0.4c0.1,0.2,0.2,0.4,0.2,0.6C27.1,26.6,27,26.8,26.8,27
		z"/>
	<path class="st1" d="M21,33.8c0-0.2,0.1-0.4,0.2-0.7c0.2-0.6,0.5-1.1,0.8-1.6c0.1-0.1,0.2-0.3,0.3-0.4c0,0,0.1-0.1,0.1-0.1
		c0.1,0,0,0.1,0,0.2c0,0.1-0.1,0.3-0.1,0.4c-0.1,0.4-0.3,0.7-0.4,1.1c-0.2,0.4-0.3,0.9-0.6,1.3c0,0,0,0.1-0.1,0.1
		c-0.1,0.1-0.2,0.1-0.2,0C21,34.1,21,34,21,33.8z"/>
	<path class="st1" d="M20.2,33.5c-0.1,0-0.2-0.1-0.3-0.2c-0.3-0.3-0.5-0.6-0.7-0.9c0,0,0,0,0-0.1c0,0,0-0.1,0-0.1c0,0,0.1,0,0.1,0
		c0.2,0.1,0.4,0.3,0.5,0.4c0.1,0.1,0.1,0.1,0.2,0c0,0,0.1,0,0.1-0.1c0.1-0.1,0.1,0,0.2,0.1c0,0.2,0.1,0.3,0.3,0.3c0,0,0.1,0,0.1,0.1
		C20.6,33.3,20.4,33.5,20.2,33.5z"/>
	<path class="st1" d="M20.9,32.9c-0.1,0-0.3-0.1-0.4-0.2c-0.1-0.1-0.1-0.2,0-0.2c0.1-0.1,0.2-0.2,0.3-0.3c0.1-0.1,0.1,0,0.1,0
		c0,0.1,0.1,0.3,0.1,0.4C21.2,32.8,21.1,32.9,20.9,32.9z"/>
	<path class="st1" d="M10.7,20.8c0-0.2,0.1-0.4,0.1-0.5c0.1-0.1,0.1-0.2,0.1-0.3c0.1-0.2,0.2-0.4,0.3-0.6c0-0.1,0.1-0.1,0.1-0.1
		c0.1,0,0.1,0.1,0.1,0.2c0,0.1-0.1,0.2-0.1,0.4c0,0-0.1,0.1-0.1,0.1c-0.1,0.1,0,0.2,0.1,0.3c0.1,0,0.2,0,0.3,0
		c0.2,0,0.3,0.1,0.4,0.1c0.1,0,0.2,0.1,0.3,0c0.1-0.1,0.1-0.1,0-0.2c-0.2-0.3-0.4-0.6-0.6-0.9c-0.1-0.1-0.1-0.1-0.2-0.2
		c0-0.1-0.1-0.1-0.1,0c0,0.1-0.1,0.1-0.1,0.2c0,0,0,0.1-0.1,0c0,0,0,0,0-0.1c0-0.2,0-0.4,0-0.6c0.1-0.3,0.2-0.7,0.4-0.9
		c0.2-0.3,0.5-0.6,0.7-0.8c0.2-0.2,0.5-0.4,0.8-0.5c0.1-0.1,0.3-0.1,0.4-0.1c0.2,0,0.3-0.1,0.5-0.1c0.2-0.1,0.4-0.1,0.7-0.1
		c0.4,0,0.7,0,1.1,0c0.4,0,0.8-0.2,1-0.5c0.3-0.3,0.4-0.6,0.6-1c0.2-0.4,0.4-0.7,0.6-1c0.2-0.2,0.5-0.4,0.8-0.5
		c0.3-0.1,0.5-0.2,0.8-0.3c0.1,0,0.2-0.1,0.3-0.2c0.3-0.2,0.5-0.4,0.8-0.6c0.1,0,0.1-0.1,0.2-0.1c0.1,0,0.1,0,0.1,0.1
		c0,0.2-0.1,0.3-0.2,0.4c-0.1,0.1-0.2,0.2-0.3,0.3c-0.2,0.2-0.2,0.5-0.1,0.7c0.2,0.5,0.3,0.9,0.3,1.4c0,0.3,0,0.7-0.2,1
		c-0.2,0.5-0.4,0.9-0.6,1.3c0,0.1-0.1,0.1-0.1,0.2c-0.1,0.1-0.2,0.1-0.3,0c-0.1,0-0.1-0.1-0.2-0.2c-0.1-0.1-0.1-0.1-0.2-0.2
		c-0.3-0.2-0.5,0-0.5,0.2c0,0.1,0,0.2,0.1,0.2c0.1,0.1,0.3,0.2,0.5,0.2c0.1,0,0.2,0.1,0.3,0.1c0,0,0.1,0,0.1,0.1
		c0,0.2,0.1,0.4,0.1,0.6c0,0.1,0,0.2,0,0.3c0,0,0,0.1,0,0.1l0,0c0,0.2,0,0.4,0,0.5c0,0.1,0,0.2,0,0.3c0,0.1,0,0.1-0.1,0.1
		c-0.1,0-0.3,0-0.4,0c0,0-0.1,0-0.1,0c0,0.1,0,0.1,0.1,0.1c0.1,0,0.1,0.1,0.2,0.1l0,0c0.1,0.1,0.1,0.1,0.2,0.2c0,0,0,0,0,0.1
		c0.1,0.2-0.1,0.4-0.2,0.6c0,0-0.1,0.1-0.1,0.1c0,0-0.1,0.1-0.1,0.1c0,0-0.1,0.1-0.1,0.1l0,0c0,0.1-0.1,0.1,0,0.2l0,0
		c0.1,0.1,0.2,0.1,0.3,0c0,0,0-0.1,0-0.1c0-0.1,0.1-0.1,0.1-0.2c0,0,0-0.1,0-0.1c0.1-0.1,0.1-0.2,0.1-0.3c0,0,0,0,0,0
		c0.1-0.1,0.3-0.1,0.3,0.1c0,0,0,0.1,0,0.1l0,0c0,0.1,0,0.1,0.1,0.1l0,0c0.1,0.1,0.2,0.1,0.3,0.1c0,0,0,0,0,0c0.2,0,0.4,0.1,0.6,0
		l0,0c0.1,0,0.3,0,0.4-0.1c0.2,0,0.4,0,0.6,0.3c0,0,0,0.1,0.1,0.1l0,0c0,0.1,0.1,0.1,0.1,0.2l0,0c0,0.1,0,0.2,0.1,0.3l0,0
		c0,0.1,0,0.2,0.1,0.3c0,0.1,0,0.2-0.1,0.3c0,0,0,0,0,0c0,0-0.1,0.1-0.1,0.1c0,0-0.1,0.1-0.1,0.1c-0.1,0.1-0.2,0.1-0.2,0.3l0,0
		c0,0.1-0.1,0.1-0.1,0.2l0,0c-0.1,0.1-0.1,0.2-0.1,0.3l0,0c-0.1,0.1-0.1,0.2-0.1,0.3l0,0c0,0-0.1,0.1-0.1,0.1l0,0
		c-0.1,0-0.1,0-0.1-0.1c0-0.1,0-0.1,0-0.2c0-0.1,0-0.2-0.1-0.2c-0.1,0-0.1,0-0.1,0c-0.1,0-0.1,0.1-0.1,0.1l0,0
		c-0.1,0.1-0.1,0.2-0.1,0.3l0,0c-0.1,0.1-0.1,0.3-0.1,0.4c0,0,0,0,0,0c0,0-0.1,0.1-0.1,0c0,0,0,0,0,0c-0.1-0.3-0.1-0.6-0.1-0.9
		c0-0.1,0-0.1,0-0.1l0,0c0-0.1,0.1-0.2,0-0.3l0,0c0-0.2-0.2-0.2-0.3-0.1l0,0c-0.1,0.1-0.2,0.3-0.3,0.4c-0.1,0.2-0.2,0.5-0.3,0.8
		c0,0,0,0.1,0,0.1l0,0c-0.1,0.3,0,0.5,0.1,0.7l0,0c0,0.1,0,0.2,0,0.3l0,0c0,0,0,0.1-0.1,0.2c-0.1,0.2-0.1,0.5-0.3,0.7
		c-0.1,0.1-0.1,0.1-0.3,0.1c-0.1-0.1-0.2,0-0.3-0.1c-0.1,0-0.1,0-0.2,0c-0.1,0-0.2,0-0.3,0c-0.1,0-0.1,0-0.2,0
		c-0.1,0-0.1,0.1-0.1,0.2c0,0.1,0.1,0.1,0.2,0.1c0.1,0,0.1,0,0.2,0c0.1,0,0.2,0,0.2,0.1c0.2,0.4,0,0.8-0.4,0.9c-0.3,0.1-0.5,0-0.8,0
		c-0.2,0-0.4-0.1-0.6-0.1c0,0-0.1,0-0.1,0c0,0.1,0,0.1,0.1,0.1c0.2,0.1,0.5,0.2,0.7,0.4c0.1,0,0.1,0.1,0.2,0.1
		c0.1,0.1,0.1,0.2-0.1,0.3c-0.2,0.1-0.3,0.1-0.5,0.2c-0.2,0.1-0.3,0.1-0.5,0.3c0,0-0.1,0-0.1,0.1c0,0,0.1,0.1,0.1,0.1
		c0.1,0,0.2,0,0.3,0c0.1,0,0.1,0,0.1,0.1c0,0,0,0.1,0,0.1c-0.1,0-0.1,0.1-0.2,0.1c-0.1,0.1-0.2,0.2-0.2,0.3c0,0.3,0.1,0.5,0.2,0.8
		c0.1,0.2,0.2,0.4,0.2,0.6c0,0.2,0,0.3-0.2,0.3c-0.1,0-0.2,0-0.3,0c-0.1,0-0.2,0-0.3,0.1c-0.1,0.2-0.2,0.4-0.3,0.6
		c-0.1,0.1-0.1,0.3-0.1,0.4c0,0,0,0.1,0,0.1c0.1,0,0.1,0,0.1,0c0.1-0.1,0.2-0.1,0.3-0.2c0.2-0.1,0.3-0.1,0.4,0.1
		c0.1,0.1,0.2,0.2,0.3,0.3c0.1,0.1,0.3,0.1,0.5,0.2c0,0,0.1,0,0.1,0c0,0,0-0.1,0-0.1c-0.2-0.2-0.4-0.4-0.6-0.6c-0.1,0-0.1,0-0.2,0
		c0,0-0.1,0-0.1,0c0,0,0,0,0.1-0.1c0.2-0.1,0.5-0.2,0.7,0c0.2,0.1,0.3,0.2,0.5,0.4c0,0,0,0.1,0.1,0.1c0.1,0.1,0.2,0.3,0.3,0.4
		c0.1,0.1,0.1,0.2,0.1,0.3c0,0.2-0.1,0.5-0.3,0.5c-0.1,0-0.2,0-0.3-0.1c-0.1-0.1-0.2-0.3-0.3-0.4c-0.1-0.1-0.1-0.1-0.2-0.2
		c-0.1,0-0.1,0-0.1,0.1c0,0.2,0,0.3,0,0.5c0,0.1,0,0.2,0,0.3c-0.1,0.1-0.1,0.1-0.2,0c-0.1-0.1-0.1-0.3-0.2-0.5c0,0,0,0,0,0
		c0-0.1-0.1-0.1-0.1-0.1c-0.1,0-0.1,0.1-0.2,0.1c-0.2,0.3-0.4,0.4-0.7,0.5c-0.2,0.1-0.4,0.1-0.6,0.1c-0.1,0-0.2,0-0.2-0.1
		c-0.3-0.2-0.6-0.4-0.9-0.5c-0.1,0-0.3-0.1-0.4-0.1c-0.3-0.1-0.5,0-0.7,0.1c0,0-0.1,0-0.1,0c-0.1,0-0.2,0-0.2-0.1
		c0-0.1-0.1-0.2-0.1-0.3c0-0.4,0-0.8,0-1.2c0-0.6,0.1-1.2,0.1-1.8c0-0.2,0-0.4-0.1-0.6c-0.1-0.1-0.2-0.2-0.3-0.2
		c-0.2-0.1-0.4-0.3-0.5-0.5c-0.1-0.2-0.1-0.3-0.2-0.5c0,0,0-0.1-0.1-0.1c0,0,0,0.1,0,0.1c0,0.1,0,0.2,0,0.3c0,0.2,0,0.4-0.1,0.6
		c-0.1,0.1-0.1,0.2-0.3,0c-0.1-0.1-0.2-0.2-0.3-0.4c-0.1-0.1-0.2-0.2-0.4-0.2c0,0-0.1,0-0.1-0.1c0-0.1,0-0.1,0-0.2
		c0.2-0.3,0.3-0.6,0.3-1c0-0.4,0-0.9,0-1.3c0-0.2,0-0.3,0-0.4c0,0,0-0.1,0.1-0.1c0.1,0,0.1,0.1,0.1,0.1c0,0.2,0,0.4,0,0.7
		c0,0.2,0.2,0.2,0.3,0.2c0.2,0,0.3-0.2,0.3-0.3c0.1-0.1,0.1-0.3,0.1-0.4c0-0.1,0-0.3,0-0.4c0-0.1,0-0.2-0.1-0.3c0,0,0-0.1,0-0.1
		c0-0.1-0.2-0.4-0.3-0.4c-0.1,0-0.3-0.1-0.4,0c0,0-0.1,0.1-0.1,0.1c0-0.1,0-0.3,0-0.4c0-0.2,0-0.5,0-0.7c0-0.2,0-0.5,0.1-0.7
		c0-0.1,0.2-0.2,0.2-0.2c0,0,0.1,0,0,0.1c-0.1,0.2,0,0.3-0.1,0.5c0,0,0,0.1,0.1,0.1c0.1,0,0.1,0,0.1-0.1c0.1-0.2,0.2-0.4,0.2-0.6
		c0-0.1-0.1-0.2-0.2-0.2c-0.1,0-0.1,0,0-0.1c0,0,0-0.1,0-0.1c0,0-0.1,0-0.1,0c-0.1,0-0.2,0.1-0.2,0.1c-0.1,0-0.1,0-0.1-0.1
		C10.7,21.1,10.7,21,10.7,20.8z"/>
	<path class="st1" d="M18.5,28.1c0.2-0.1,0.5-0.3,0.7-0.4c0.2-0.1,0.3-0.2,0.5-0.2c0.1,0,0.2,0.1,0.3,0.1c0.2,0.1,0.4,0.2,0.5,0.4
		c0.1,0.1,0.1,0.2,0,0.3c-0.1,0.1-0.2,0.1-0.2,0.2c-0.1,0.1-0.1,0.1,0,0.2c0.1,0.1,0.1,0.1,0.2,0.1c0.1,0.1,0.3,0,0.3-0.1
		c0.1-0.1,0.1-0.3,0.1-0.4c0-0.2,0-0.5,0-0.7c0,0,0-0.1,0-0.1c0,0,0.1,0,0.1,0c0.1,0.1,0.1,0.2,0.1,0.3c0.1,0.2,0.2,0.5,0.2,0.7
		c0,0.1,0,0.2-0.1,0.2c-0.1,0,0,0.1,0,0.1c0.1,0.2,0.2,0.4,0.4,0.6c0.1,0.1,0.2,0.3,0.3,0.4c0,0,0,0,0,0.1c0,0,0,0-0.1,0
		c-0.1,0-0.2,0-0.3,0.1c-0.1,0.1,0,0.2,0,0.3c0,0.3,0.1,0.5,0.1,0.8c0,0.2-0.1,0.3-0.1,0.4c0,0-0.1,0.1-0.1,0.1
		c-0.3,0.1-0.6,0.2-0.8,0.2c-0.1,0-0.2,0-0.3-0.1c-0.3-0.1-0.6-0.3-0.9-0.4c-0.1,0-0.1,0-0.2,0c-0.1,0.1-0.3,0.2-0.5,0
		c-0.1-0.1-0.1-0.1,0-0.2c0.1-0.1,0.2-0.2,0.2-0.3c0.1-0.1,0-0.2-0.1-0.3c-0.2-0.1-0.4-0.1-0.6-0.1c0,0,0,0-0.1,0
		c-0.1-0.1-0.2-0.2-0.3-0.2c-0.1,0-0.1-0.1-0.1-0.1c0-0.5-0.3-1-0.6-1.4c-0.1-0.1-0.1-0.1,0-0.2c0,0,0.1,0,0.1,0c0,0,0-0.1,0-0.1
		c-0.1,0-0.2-0.1-0.2-0.1c-0.1,0-0.1-0.1,0-0.1c0,0,0.1-0.1,0.1-0.1c0.1,0,0.2-0.1,0.2,0c0.2,0.2,0.5,0.1,0.7,0
		C18.3,28.2,18.4,28.2,18.5,28.1z"/>
</g>
<rect x="3.9" y="3.9" class="st1" width="32.2" height="4.1"/>
</svg>
