<?xml version="1.0" encoding="utf-8"?>
<!-- Generator: Adobe Illustrator 21.0.0, SVG Export Plug-In . SVG Version: 6.00 Build 0)  -->
<svg version="1.1" id="Lag_1" xmlns="http://www.w3.org/2000/svg" xmlns:xlink="http://www.w3.org/1999/xlink" x="0px" y="0px"
	 viewBox="0 0 40 40" style="enable-background:new 0 0 40 40;" xml:space="preserve">
<style type="text/css">
	.st0{fill:none;stroke:#212121;stroke-width:0.25;stroke-miterlimit:10;}
	.st1{fill:#565656;}
</style>
<path class="st0" d="M35,38.6H5c-2,0-3.5-1.6-3.5-3.5V5C1.4,3,3,1.4,5,1.4h30c2,0,3.5,1.6,3.5,3.5v30C38.6,37,37,38.6,35,38.6z"/>
<g>
	<path class="st1" d="M33.8,27.2C33.7,27.3,33.7,27.3,33.8,27.2c0.1,0.1,0.2,0.1,0.3,0.2c0.1,0,0.1,0,0.2-0.1c0,0,0-0.1,0-0.1
		c0-0.4-0.1-0.8-0.2-1.2c0-0.2-0.1-0.4-0.2-0.5c-0.1-0.1-0.1-0.1-0.3-0.2c-0.1,0-0.2,0-0.3,0c0,0-0.1,0-0.1,0c0-0.1,0-0.1,0.1-0.1
		c0.2-0.1,0.4-0.3,0.6-0.4c0.3-0.2,0.5-0.3,0.7-0.6c0.1-0.1,0.2-0.1,0.3,0c0.3,0.1,0.6,0.1,0.9,0.2c0.1,0,0.3,0,0.4,0.1
		c0.1,0.1,0.2,0.2,0.1,0.4c-0.1,0.2-0.1,0.3-0.2,0.5C36,25.5,36,25.7,36,25.8c0.1,0.4,0.1,0.8,0.3,1.1c0,0.1,0.1,0.2,0.2,0.3
		c0.1,0.2,0.2,0.3,0.1,0.5c0,0.2-0.1,0.3-0.3,0.4c-0.1,0-0.2,0-0.2-0.1c0-0.1,0-0.1,0-0.2c0-0.1,0-0.2-0.1-0.1
		c-0.1,0-0.3,0.1-0.4,0.1c-0.3,0.1-0.5,0.3-0.7,0.5c-0.1,0.2-0.2,0.3-0.2,0.5c0,0.1,0,0.2,0.2,0.3c0.1,0.1,0.3,0.1,0.4,0.2
		c0.2,0.2,0.4,0.3,0.6,0.6c0.1,0.2,0.1,0.3-0.1,0.4c-0.2,0.1-0.4,0.2-0.6,0.2c-0.2,0.1-0.4,0.1-0.6,0.2c-0.2,0.1-0.3,0.3-0.2,0.6
		c0,0.1,0.1,0.2,0.2,0.3c0.1,0.1,0.1,0.2,0,0.2c-0.1,0.1-0.1,0.2-0.1,0.3c0,0.1,0,0.2-0.1,0.3c-0.1,0.1-0.3,0.1-0.4,0.2
		c-0.2,0-0.4-0.1-0.6-0.2c-0.2-0.1-0.4-0.3-0.6-0.5c-0.1-0.1-0.1-0.1,0-0.3c0.1-0.2,0.1-0.4,0-0.6c-0.1-0.1-0.2-0.2-0.4-0.3
		c-0.3-0.1-0.6-0.1-0.9,0C31.1,31,31,31,30.9,31c-0.2,0-0.3,0-0.3-0.2c-0.1-0.1-0.1-0.3-0.1-0.4c-0.1-0.2-0.2-0.3-0.3-0.5
		c0,0,0,0,0,0c-0.1-0.2-0.1-0.2,0.1-0.3c0.2-0.1,0.2-0.3,0.2-0.5c0-0.2-0.2-0.4-0.3-0.5c-0.2-0.2-0.4-0.4-0.6-0.7
		c-0.1-0.1-0.2-0.3-0.1-0.4c0-0.1,0.1-0.1,0.2-0.1c0.1,0,0.1,0,0.2,0.1c0.1,0,0.1,0,0.2,0c0,0,0.1,0,0.1,0c0,0,0,0-0.1-0.1
		c-0.1,0-0.3-0.1-0.4-0.1c-0.3-0.1-0.3-0.3-0.1-0.5c0-0.1,0.1-0.1,0.2,0c0.1,0.1,0.1,0.1,0.2,0.2c0.2,0.1,0.3,0.1,0.4-0.1
		c0,0,0-0.1,0.1-0.1c0.1,0,0.1-0.1,0.2,0c0.1,0,0.1,0.1,0,0.2c0,0,0,0,0,0c0,0,0,0,0,0.1c0,0,0.1,0,0.1,0c0.2-0.1,0.5-0.2,0.7-0.3
		c0,0,0.1-0.1,0.1-0.1c0.1-0.1,0.1-0.2,0-0.3c0,0-0.1,0-0.1-0.1c0,0,0.1,0,0.1,0c0.1,0,0.3,0,0.4,0c0.1,0,0.2,0,0.3-0.1
		c0.1-0.1,0.1-0.1,0-0.2c-0.1-0.1-0.2-0.2-0.4-0.3c-0.2-0.1-0.5-0.2-0.7-0.3c-0.1-0.1-0.1-0.2-0.1-0.3c0-0.1,0.1,0,0.1,0
		c0.1,0.1,0.2,0.1,0.4,0.2c0.1,0,0.3,0,0.4,0c0.4,0,0.7,0,1.1,0c0.1,0,0.2,0.1,0.1,0.2c-0.1,0.2-0.2,0.3-0.3,0.3
		c-0.1,0.1-0.1,0.1-0.1,0.2c0,0.1,0,0.2,0,0.3c0,0.1-0.1,0.2-0.2,0.1c0,0-0.1,0-0.1,0c0,0,0,0.1,0,0.1c0,0,0,0.1,0.1,0.1
		c0.3,0,0.5,0.2,0.6,0.4c0,0.1,0,0.2,0.1,0.3c0.1,0.1,0.1,0.1,0.2,0c0-0.1,0.1-0.2,0.1-0.3c0-0.1,0-0.1-0.1-0.2
		c-0.1,0-0.1-0.1-0.2-0.2c0-0.1,0-0.1,0-0.2c0.1,0,0.1,0,0.1,0c0.1,0.1,0.2,0.1,0.2-0.1c0-0.1,0.1-0.2,0.1-0.3c0-0.2,0-0.4,0.1-0.5
		c0,0,0-0.1,0-0.1c0,0,0-0.1,0.1-0.1c0,0,0.1,0,0.1,0.1c0.1,0.1,0.1,0.3,0.2,0.4c0.1,0.2,0.2,0.4,0.2,0.6C34,26.8,34,27.1,33.8,27.2
		z"/>
	<path class="st1" d="M27.9,34.1c0-0.2,0.1-0.4,0.2-0.7c0.2-0.6,0.5-1.1,0.8-1.6c0.1-0.1,0.2-0.3,0.3-0.4c0,0,0.1-0.1,0.1-0.1
		c0.1,0,0,0.1,0,0.2c0,0.1-0.1,0.3-0.1,0.4c-0.1,0.4-0.3,0.7-0.4,1.1c-0.2,0.4-0.3,0.9-0.6,1.3c0,0,0,0.1-0.1,0.1
		c-0.1,0.1-0.2,0.1-0.2,0C27.9,34.3,27.9,34.3,27.9,34.1z"/>
	<path class="st1" d="M27.1,33.8c-0.1,0-0.2-0.1-0.3-0.2c-0.3-0.3-0.5-0.6-0.7-0.9c0,0,0,0,0-0.1c0,0,0-0.1,0-0.1c0,0,0.1,0,0.1,0
		c0.2,0.1,0.4,0.3,0.5,0.4c0.1,0.1,0.1,0.1,0.2,0c0,0,0.1,0,0.1-0.1c0.1-0.1,0.1,0,0.2,0.1c0,0.2,0.1,0.3,0.3,0.3c0,0,0.1,0,0.1,0.1
		C27.5,33.6,27.3,33.8,27.1,33.8z"/>
	<path class="st1" d="M27.8,33.2c-0.1,0-0.3-0.1-0.4-0.2c-0.1-0.1-0.1-0.2,0-0.2c0.1-0.1,0.2-0.2,0.3-0.3c0.1-0.1,0.1,0,0.1,0
		c0,0.1,0.1,0.3,0.1,0.4C28.1,33.1,28,33.2,27.8,33.2z"/>
	<path class="st1" d="M17.6,21.1c0-0.2,0.1-0.4,0.1-0.5c0.1-0.1,0.1-0.2,0.1-0.3c0.1-0.2,0.2-0.4,0.3-0.6c0-0.1,0.1-0.1,0.1-0.1
		c0.1,0,0.1,0.1,0.1,0.2c0,0.1-0.1,0.2-0.1,0.4c0,0-0.1,0.1-0.1,0.1c-0.1,0.1,0,0.2,0.1,0.3c0.1,0,0.2,0,0.3,0
		c0.2,0,0.3,0.1,0.4,0.1c0.1,0,0.2,0.1,0.3,0c0.1-0.1,0.1-0.1,0-0.2c-0.2-0.3-0.4-0.6-0.6-0.9c-0.1-0.1-0.1-0.1-0.2-0.2
		c0-0.1-0.1-0.1-0.1,0c0,0.1-0.1,0.1-0.1,0.2c0,0,0,0.1-0.1,0c0,0,0,0,0-0.1c0-0.2,0-0.4,0-0.6c0.1-0.3,0.2-0.7,0.4-0.9
		c0.2-0.3,0.5-0.6,0.7-0.8c0.2-0.2,0.5-0.4,0.8-0.5c0.1-0.1,0.3-0.1,0.4-0.1c0.2,0,0.3-0.1,0.5-0.1c0.2-0.1,0.4-0.1,0.7-0.1
		c0.4,0,0.7,0,1.1,0c0.4,0,0.8-0.2,1-0.5c0.3-0.3,0.4-0.6,0.6-1c0.2-0.4,0.4-0.7,0.6-1c0.2-0.2,0.5-0.4,0.8-0.5
		c0.3-0.1,0.5-0.2,0.8-0.3c0.1,0,0.2-0.1,0.3-0.2c0.3-0.2,0.5-0.4,0.8-0.6c0.1,0,0.1-0.1,0.2-0.1c0.1,0,0.1,0,0.1,0.1
		c0,0.2-0.1,0.3-0.2,0.4c-0.1,0.1-0.2,0.2-0.3,0.3c-0.2,0.2-0.2,0.5-0.1,0.7c0.2,0.5,0.3,0.9,0.3,1.4c0,0.3,0,0.7-0.2,1
		c-0.2,0.5-0.4,0.9-0.6,1.3c0,0.1-0.1,0.1-0.1,0.2c-0.1,0.1-0.2,0.1-0.3,0c-0.1,0-0.1-0.1-0.2-0.2c-0.1-0.1-0.1-0.1-0.2-0.2
		c-0.3-0.2-0.5,0-0.5,0.2c0,0.1,0,0.2,0.1,0.2c0.1,0.1,0.3,0.2,0.5,0.2c0.1,0,0.2,0.1,0.3,0.1c0,0,0.1,0,0.1,0.1
		c0,0.2,0.1,0.4,0.1,0.6c0,0.1,0,0.2,0,0.3c0,0,0,0.1,0,0.1l0,0c0,0.2,0,0.4,0,0.5c0,0.1,0,0.2,0,0.3c0,0.1,0,0.1-0.1,0.1
		c-0.1,0-0.3,0-0.4,0c0,0-0.1,0-0.1,0c0,0.1,0,0.1,0.1,0.1c0.1,0,0.1,0.1,0.2,0.1l0,0c0.1,0.1,0.1,0.1,0.2,0.2c0,0,0,0,0,0.1
		c0.1,0.2-0.1,0.4-0.2,0.6c0,0-0.1,0.1-0.1,0.1c0,0-0.1,0.1-0.1,0.1c0,0-0.1,0.1-0.1,0.1l0,0c0,0.1-0.1,0.1,0,0.2l0,0
		c0.1,0.1,0.2,0.1,0.3,0c0,0,0-0.1,0-0.1c0-0.1,0.1-0.1,0.1-0.2c0,0,0-0.1,0-0.1c0.1-0.1,0.1-0.2,0.1-0.3c0,0,0,0,0,0
		c0.1-0.1,0.3-0.1,0.3,0.1c0,0,0,0.1,0,0.1l0,0c0,0.1,0,0.1,0.1,0.1l0,0c0.1,0.1,0.2,0.1,0.3,0.1c0,0,0,0,0,0c0.2,0,0.4,0.1,0.6,0
		l0,0c0.1,0,0.3,0,0.4-0.1c0.2,0,0.4,0,0.6,0.3c0,0,0,0.1,0.1,0.1l0,0c0,0.1,0.1,0.1,0.1,0.2l0,0c0,0.1,0,0.2,0.1,0.3l0,0
		c0,0.1,0,0.2,0.1,0.3c0,0.1,0,0.2-0.1,0.3c0,0,0,0,0,0c0,0-0.1,0.1-0.1,0.1c0,0-0.1,0.1-0.1,0.1c-0.1,0.1-0.2,0.1-0.2,0.3l0,0
		c0,0.1-0.1,0.1-0.1,0.2l0,0c-0.1,0.1-0.1,0.2-0.1,0.3l0,0c-0.1,0.1-0.1,0.2-0.1,0.3l0,0c0,0-0.1,0.1-0.1,0.1l0,0
		c-0.1,0-0.1,0-0.1-0.1c0-0.1,0-0.1,0-0.2c0-0.1,0-0.2-0.1-0.2c-0.1,0-0.1,0-0.1,0c-0.1,0-0.1,0.1-0.1,0.1l0,0
		c-0.1,0.1-0.1,0.2-0.1,0.3l0,0c-0.1,0.1-0.1,0.3-0.1,0.4c0,0,0,0,0,0c0,0-0.1,0.1-0.1,0c0,0,0,0,0,0c-0.1-0.3-0.1-0.6-0.1-0.9
		c0-0.1,0-0.1,0-0.1l0,0c0-0.1,0.1-0.2,0-0.3l0,0c0-0.2-0.2-0.2-0.3-0.1l0,0c-0.1,0.1-0.2,0.3-0.3,0.4c-0.1,0.2-0.2,0.5-0.3,0.8
		c0,0,0,0.1,0,0.1l0,0c-0.1,0.3,0,0.5,0.1,0.7l0,0c0,0.1,0,0.2,0,0.3l0,0c0,0,0,0.1-0.1,0.2c-0.1,0.2-0.1,0.5-0.3,0.7
		C26.2,26,26.2,26.1,26,26c-0.1-0.1-0.2,0-0.3-0.1c-0.1,0-0.1,0-0.2,0c-0.1,0-0.2,0-0.3,0c-0.1,0-0.1,0-0.2,0C25,26,25,26,25,26.1
		c0,0.1,0.1,0.1,0.2,0.1c0.1,0,0.1,0,0.2,0c0.1,0,0.2,0,0.2,0.1c0.2,0.4,0,0.8-0.4,0.9c-0.3,0.1-0.5,0-0.8,0c-0.2,0-0.4-0.1-0.6-0.1
		c0,0-0.1,0-0.1,0c0,0.1,0,0.1,0.1,0.1c0.2,0.1,0.5,0.2,0.7,0.4c0.1,0,0.1,0.1,0.2,0.1c0.1,0.1,0.1,0.2-0.1,0.3
		c-0.2,0.1-0.3,0.1-0.5,0.2c-0.2,0.1-0.3,0.1-0.5,0.3c0,0-0.1,0-0.1,0.1c0,0,0.1,0.1,0.1,0.1c0.1,0,0.2,0,0.3,0c0.1,0,0.1,0,0.1,0.1
		c0,0,0,0.1,0,0.1c-0.1,0-0.1,0.1-0.2,0.1c-0.1,0.1-0.2,0.2-0.2,0.3c0,0.3,0.1,0.5,0.2,0.8c0.1,0.2,0.2,0.4,0.2,0.6
		c0,0.2,0,0.3-0.2,0.3c-0.1,0-0.2,0-0.3,0c-0.1,0-0.2,0-0.3,0.1c-0.1,0.2-0.2,0.4-0.3,0.6c-0.1,0.1-0.1,0.3-0.1,0.4c0,0,0,0.1,0,0.1
		c0.1,0,0.1,0,0.1,0c0.1-0.1,0.2-0.1,0.3-0.2c0.2-0.1,0.3-0.1,0.4,0.1c0.1,0.1,0.2,0.2,0.3,0.3c0.1,0.1,0.3,0.1,0.5,0.2
		c0,0,0.1,0,0.1,0c0,0,0-0.1,0-0.1c-0.2-0.2-0.4-0.4-0.6-0.6c-0.1,0-0.1,0-0.2,0c0,0-0.1,0-0.1,0c0,0,0,0,0.1-0.1
		c0.2-0.1,0.5-0.2,0.7,0c0.2,0.1,0.3,0.2,0.5,0.4c0,0,0,0.1,0.1,0.1c0.1,0.1,0.2,0.3,0.3,0.4c0.1,0.1,0.1,0.2,0.1,0.3
		c0,0.2-0.1,0.5-0.3,0.5c-0.1,0-0.2,0-0.3-0.1c-0.1-0.1-0.2-0.3-0.3-0.4c-0.1-0.1-0.1-0.1-0.2-0.2c-0.1,0-0.1,0-0.1,0.1
		c0,0.2,0,0.3,0,0.5c0,0.1,0,0.2,0,0.3c-0.1,0.1-0.1,0.1-0.2,0c-0.1-0.1-0.1-0.3-0.2-0.5c0,0,0,0,0,0c0-0.1-0.1-0.1-0.1-0.1
		c-0.1,0-0.1,0.1-0.2,0.1c-0.2,0.3-0.4,0.4-0.7,0.5c-0.2,0.1-0.4,0.1-0.6,0.1c-0.1,0-0.2,0-0.2-0.1c-0.3-0.2-0.6-0.4-0.9-0.5
		c-0.1,0-0.3-0.1-0.4-0.1c-0.3-0.1-0.5,0-0.7,0.1c0,0-0.1,0-0.1,0c-0.1,0-0.2,0-0.2-0.1c0-0.1-0.1-0.2-0.1-0.3c0-0.4,0-0.8,0-1.2
		c0-0.6,0.1-1.2,0.1-1.8c0-0.2,0-0.4-0.1-0.6c-0.1-0.1-0.2-0.2-0.3-0.2c-0.2-0.1-0.4-0.3-0.5-0.5c-0.1-0.2-0.1-0.3-0.2-0.5
		c0,0,0-0.1-0.1-0.1c0,0,0,0.1,0,0.1c0,0.1,0,0.2,0,0.3c0,0.2,0,0.4-0.1,0.6c-0.1,0.1-0.1,0.2-0.3,0c-0.1-0.1-0.2-0.2-0.3-0.4
		c-0.1-0.1-0.2-0.2-0.4-0.2c0,0-0.1,0-0.1-0.1c0-0.1,0-0.1,0-0.2c0.2-0.3,0.3-0.6,0.3-1c0-0.4,0-0.9,0-1.3c0-0.2,0-0.3,0-0.4
		c0,0,0-0.1,0.1-0.1c0.1,0,0.1,0.1,0.1,0.1c0,0.2,0,0.4,0,0.7c0,0.2,0.2,0.2,0.3,0.2c0.2,0,0.3-0.2,0.3-0.3c0.1-0.1,0.1-0.3,0.1-0.4
		c0-0.1,0-0.3,0-0.4c0-0.1,0-0.2-0.1-0.3c0,0,0-0.1,0-0.1c0-0.1-0.2-0.4-0.3-0.4c-0.1,0-0.3-0.1-0.4,0c0,0-0.1,0.1-0.1,0.1
		c0-0.1,0-0.3,0-0.4c0-0.2,0-0.5,0-0.7c0-0.2,0-0.5,0.1-0.7c0-0.1,0.2-0.2,0.2-0.2c0,0,0.1,0,0,0.1c-0.1,0.2,0,0.3-0.1,0.5
		c0,0,0,0.1,0.1,0.1c0.1,0,0.1,0,0.1-0.1c0.1-0.2,0.2-0.4,0.2-0.6c0-0.1-0.1-0.2-0.2-0.2c-0.1,0-0.1,0,0-0.1c0,0,0-0.1,0-0.1
		c0,0-0.1,0-0.1,0c-0.1,0-0.2,0.1-0.2,0.1c-0.1,0-0.1,0-0.1-0.1C17.6,21.4,17.6,21.3,17.6,21.1z"/>
	<path class="st1" d="M25.4,28.4c0.2-0.1,0.5-0.3,0.7-0.4c0.2-0.1,0.3-0.2,0.5-0.2c0.1,0,0.2,0.1,0.3,0.1c0.2,0.1,0.4,0.2,0.5,0.4
		c0.1,0.1,0.1,0.2,0,0.3c-0.1,0.1-0.2,0.1-0.2,0.2c-0.1,0.1-0.1,0.1,0,0.2c0.1,0.1,0.1,0.1,0.2,0.1c0.1,0.1,0.3,0,0.3-0.1
		c0.1-0.1,0.1-0.3,0.1-0.4c0-0.2,0-0.5,0-0.7c0,0,0-0.1,0-0.1c0,0,0.1,0,0.1,0c0.1,0.1,0.1,0.2,0.1,0.3c0.1,0.2,0.2,0.5,0.2,0.7
		c0,0.1,0,0.2-0.1,0.2c-0.1,0,0,0.1,0,0.1c0.1,0.2,0.2,0.4,0.4,0.6c0.1,0.1,0.2,0.3,0.3,0.4c0,0,0,0,0,0.1c0,0,0,0-0.1,0
		c-0.1,0-0.2,0-0.3,0.1c-0.1,0.1,0,0.2,0,0.3c0,0.3,0.1,0.5,0.1,0.8c0,0.2-0.1,0.3-0.1,0.4c0,0-0.1,0.1-0.1,0.1
		c-0.3,0.1-0.6,0.2-0.8,0.2c-0.1,0-0.2,0-0.3-0.1c-0.3-0.1-0.6-0.3-0.9-0.4c-0.1,0-0.1,0-0.2,0c-0.1,0.1-0.3,0.2-0.5,0
		c-0.1-0.1-0.1-0.1,0-0.2c0.1-0.1,0.2-0.2,0.2-0.3c0.1-0.1,0-0.2-0.1-0.3c-0.2-0.1-0.4-0.1-0.6-0.1c0,0,0,0-0.1,0
		c-0.1-0.1-0.2-0.2-0.3-0.2c-0.1,0-0.1-0.1-0.1-0.1c0-0.5-0.3-1-0.6-1.4c-0.1-0.1-0.1-0.1,0-0.2c0,0,0.1,0,0.1,0c0,0,0-0.1,0-0.1
		c-0.1,0-0.2-0.1-0.2-0.1c-0.1,0-0.1-0.1,0-0.1c0,0,0.1-0.1,0.1-0.1c0.1,0,0.2-0.1,0.2,0c0.2,0.2,0.5,0.1,0.7,0
		C25.2,28.5,25.3,28.4,25.4,28.4z"/>
</g>
<rect x="4.6" y="12.4" class="st1" width="9.4" height="5.7"/>
<rect x="4.6" y="19.9" class="st1" width="9.4" height="5.7"/>
<rect x="4.6" y="27.4" class="st1" width="9.4" height="5.7"/>
<rect x="3.9" y="3.9" class="st1" width="32.2" height="4.1"/>
</svg>
