<?xml version="1.0" encoding="utf-8"?>
<!-- Generator: Adobe Illustrator 21.0.0, SVG Export Plug-In . SVG Version: 6.00 Build 0)  -->
<svg version="1.1" id="Lag_1" xmlns="http://www.w3.org/2000/svg" xmlns:xlink="http://www.w3.org/1999/xlink" x="0px" y="0px"
	 viewBox="0 0 212 80" style="enable-background:new 0 0 212 80;" xml:space="preserve">
<style type="text/css">
	.st0{fill:#2E3F53;}
</style>
<g>
	<path class="st0" d="M45.6,15.1c6.2,0.8,11.9,2.7,17.7,4.7c1.2,0.4,2.4,0.9,3.6,1.3c0.7,0.2,6.4,2.3,6.7,1.7
		c-1.3-1.3-2.6-2.5-4-3.7c-2.5-1.7-4.8-3.3-7.6-4.5C57,12.6,50.4,12,45.6,15.1z"/>
	<path class="st0" d="M67.4,28c-1.8-1.5-4.2-3.4-6.7-3c2.5,1.5,3.9,4.7,5.6,7c1.9,2.6,3.9,5.1,5.9,7.6c2.2,2.3,4.3,4.6,6.9,6.6
		c0.3-0.6-0.8-2.7-1.1-3.3c-0.5-1.2-1.1-2.4-1.7-3.5c-1.1-2.2-2.5-4.3-4-6.2C70.9,31.3,69.2,29.5,67.4,28z"/>
	<path class="st0" d="M35,13.4c0.9-0.1,1.8-0.1,2.7-0.2c0.9-0.1,1.9-0.2,2.8-0.3c1.5-0.2,3.1-0.3,4.6-0.5c1.8-0.2,3.6-0.4,5.4-0.4
		c1.8,0,3.6,0.1,5.4,0.4c0.8,0.1,1.6,0.2,2.4,0.4c0.1,0,1.1,0.2,1,0c-3.1-3.7-8.8-5-13.4-4.8l-3.1,0.4c-3.8,1.1-7,2.7-10.3,4.9
		C33.1,13.7,34.3,13.4,35,13.4z"/>
	<path class="st0" d="M71.2,26.7c-1.4-1.8-3.2-3.5-5.1-4.8c-0.2-0.1-0.5-0.3-0.7-0.4l0,0c-0.1-0.1-0.2-0.1-0.2-0.1
		c-2.2-1.2-4.3-2.2-6.8-2.5c-0.7-0.1-3-0.5-3.4-0.1c-0.3,0.3,1.6,1.2,1.9,1.3c2.1,1.2,4.2,2.6,6.2,4c1.1,0.8,11.5,8.7,11.7,8.3
		c0.2-0.3-1.3-2.5-1.5-2.8C72.6,28.6,71.9,27.6,71.2,26.7z"/>
	<path class="st0" d="M79.7,50.5c-0.7-0.7-1.4-1.3-2.1-2c-1.3-1.4-3-2.9-3.9-4.5c-0.8-1-1.7-2-2.6-3c-0.6-0.6-5-5.7-5.6-5.3
		c1.2,4.2,3.3,8.3,6.2,11.5c1.5,1.7,3.3,3.1,5.3,4C78,51.6,81,53,82,52.5C81.7,51.8,80.3,51,79.7,50.5z"/>
	<path class="st0" d="M70.4,49.8c-2.6-3.2-4-6.6-4.9-10.5c-0.9-3.9-1.7-7.9-3.6-11.5c-1.8-3.2-4.6-5.7-7.7-7.7
		c-6.8-4.5-14.8-5.9-22.7-5.1c1.4-3.5,0.4-6.8-2.3-9.4C28.9,5.9,29,6.8,29,7.1c-0.1,0.4-0.2,0.9-0.4,1.3c-0.3,0.9-0.9,1.5-1.7,2
		c-0.9,0.4-1.8,0.6-2.6,1.2c-0.8,0.6-1.3,1.4-2,2.1c-0.6,0.6-1.6,0.6-2.4,1c-1,0.4-1.8,1.1-2.6,1.8c-1.5,1.3-2.7,2.9-3.6,4.6
		c-2.2,4-3.1,8.9-4.2,13.3c-0.5,2.1-0.9,4.3-2.1,6.2c-1.2,1.9-2.9,3.3-3.9,5.2l-0.5,1.4c-0.8,5.2,4.1,13.7,9.7,8.5
		c2.1-1.9,3-4.7,4.6-6.9c1.6-2.2,3.6-4.7,6.2-5.7c1.4-0.5,2.7-0.7,4-1.4c1.2-0.7,2.2-1.5,3.2-2.4c1.2-1.1,2.2-1.7,3.9-1
		c1.1,0.4,2.1,1.4,2.7,2.4c3.1,5.1-0.5,10.7-3.4,14.9c-1.6,2.3-3.2,4.8-4.1,7.5c-0.5,1.6-1.1,3-1.4,4.7c-0.1,0.5-0.5,3,0,3.3
		c0.1,0.1,0.3-1.2,0.4-1.4c0.2-0.4,0.4-0.9,0.6-1.3c0.5-0.9,1.1-1.7,1.8-2.5c1.4-1.4,3.2-2.5,5-3.4c3.7-1.8,7.5-2.5,11.5-2.9
		c2.6-0.3,5.3-0.4,7.9-0.9c3.4-0.7,6.7-1.5,9.9-2.9c1.8-0.8,3.5-1.8,5-3.1c0.4-0.3,1.4-0.9,1.2-1.5C71.4,50.8,70.6,50.1,70.4,49.8z"
		/>
	<polygon class="st0" points="109.3,38.4 98.9,38.4 98.9,28.9 94.7,28.9 94.7,51.1 98.9,51.1 98.9,41.4 109.3,41.4 109.3,51.1 
		113.5,51.1 113.5,28.9 109.3,28.9 	"/>
	<path class="st0" d="M129.2,36.9c-0.6-0.6-1.3-1.1-2.2-1.4c-0.8-0.3-1.8-0.5-2.7-0.5c-1.2,0-2.2,0.2-3.2,0.6
		c-0.9,0.4-1.7,1-2.4,1.7c-0.7,0.7-1.2,1.5-1.5,2.5c-0.3,0.9-0.5,2-0.5,3c0,1.4,0.2,2.6,0.6,3.7c0.4,1.1,0.9,1.9,1.6,2.6
		c0.7,0.7,1.5,1.3,2.5,1.6c0.9,0.4,2,0.5,3.1,0.5c0.6,0,1.1,0,1.7-0.1c0.6-0.1,1.2-0.2,1.7-0.4c0.6-0.2,1.1-0.5,1.6-0.8
		c0.5-0.3,1-0.7,1.4-1.2l-1.1-1.4c-0.1-0.1-0.2-0.2-0.3-0.3c-0.1-0.1-0.2-0.1-0.4-0.1c-0.2,0-0.5,0.1-0.7,0.2
		c-0.3,0.1-0.5,0.3-0.9,0.5c-0.3,0.2-0.7,0.3-1.2,0.5c-0.4,0.1-1,0.2-1.6,0.2c-1.3,0-2.3-0.4-3-1.1c-0.8-0.8-1.2-1.9-1.3-3.6h9.8
		c0.2,0,0.3,0,0.4-0.1c0.1,0,0.2-0.1,0.3-0.2c0.1-0.1,0.1-0.3,0.1-0.4c0-0.2,0-0.4,0-0.7c0-1.1-0.2-2.2-0.5-3
		C130.3,38.3,129.8,37.6,129.2,36.9z M120.5,41.4c0.2-1.1,0.6-2,1.2-2.7c0.6-0.6,1.5-0.9,2.6-0.9c0.6,0,1.1,0.1,1.5,0.3
		c0.4,0.2,0.8,0.4,1,0.8c0.3,0.3,0.5,0.7,0.6,1.1c0.1,0.4,0.2,0.9,0.2,1.4H120.5z"/>
	<path class="st0" d="M144.2,35.5c-0.2,0.1-0.3,0.3-0.4,0.5l-3.1,8.4c-0.2,0.5-0.3,1-0.5,1.4c-0.1,0.5-0.2,0.9-0.3,1.4
		c-0.1-0.5-0.2-0.9-0.3-1.4c-0.1-0.5-0.3-1-0.4-1.4l-3-8.4c-0.1-0.2-0.2-0.4-0.4-0.5c-0.2-0.1-0.4-0.2-0.7-0.2h-3.2l6.3,15.8h3.4
		l6.3-15.8h-3C144.6,35.3,144.4,35.4,144.2,35.5z"/>
	<path class="st0" d="M161,36.9c-0.6-0.6-1.3-1.1-2.2-1.4c-0.8-0.3-1.8-0.5-2.7-0.5c-1.2,0-2.2,0.2-3.2,0.6c-0.9,0.4-1.7,1-2.4,1.7
		s-1.2,1.5-1.5,2.5c-0.3,0.9-0.5,2-0.5,3c0,1.4,0.2,2.6,0.6,3.7c0.4,1.1,0.9,1.9,1.6,2.6c0.7,0.7,1.5,1.3,2.5,1.6
		c0.9,0.4,2,0.5,3.1,0.5c0.6,0,1.1,0,1.7-0.1c0.6-0.1,1.2-0.2,1.7-0.4c0.6-0.2,1.1-0.5,1.6-0.8c0.5-0.3,1-0.7,1.4-1.2l-1.1-1.4
		c-0.1-0.1-0.2-0.2-0.3-0.3c-0.1-0.1-0.2-0.1-0.4-0.1c-0.2,0-0.5,0.1-0.7,0.2c-0.3,0.1-0.5,0.3-0.9,0.5c-0.3,0.2-0.7,0.3-1.2,0.5
		c-0.4,0.1-1,0.2-1.6,0.2c-1.3,0-2.3-0.4-3-1.1c-0.8-0.8-1.2-1.9-1.3-3.6h9.8c0.2,0,0.3,0,0.4-0.1c0.1,0,0.2-0.1,0.3-0.2
		c0.1-0.1,0.1-0.3,0.1-0.4c0-0.2,0-0.4,0-0.7c0-1.1-0.2-2.2-0.5-3C162.1,38.3,161.6,37.6,161,36.9z M152.4,41.4
		c0.2-1.1,0.6-2,1.2-2.7s1.5-0.9,2.6-0.9c0.6,0,1.1,0.1,1.5,0.3c0.4,0.2,0.8,0.4,1,0.8c0.3,0.3,0.5,0.7,0.6,1.1
		c0.1,0.4,0.2,0.9,0.2,1.4H152.4z"/>
	<path class="st0" d="M178.5,36.7c-0.4-0.5-1-0.9-1.7-1.2c-0.7-0.3-1.4-0.4-2.3-0.4c-0.5,0-1,0.1-1.5,0.2c-0.5,0.1-0.9,0.3-1.3,0.4
		c-0.4,0.2-0.8,0.4-1.1,0.7c-0.4,0.3-0.7,0.6-1,0.9l-0.3-1.2c-0.2-0.5-0.5-0.7-1-0.7h-2.3v15.8h3.8V39.7c0.5-0.5,1.1-0.9,1.6-1.2
		c0.6-0.3,1.2-0.4,1.8-0.4c0.9,0,1.6,0.3,2,0.8c0.4,0.5,0.7,1.3,0.7,2.2v10.1h3.8V41.1c0-0.9-0.1-1.7-0.3-2.4
		C179.2,37.9,178.9,37.3,178.5,36.7z"/>
	<path class="st0" d="M191.5,47.9c-0.1-0.1-0.2-0.1-0.3-0.1c-0.1,0-0.2,0-0.3,0.1c-0.1,0.1-0.2,0.1-0.3,0.2s-0.3,0.1-0.4,0.2
		c-0.2,0.1-0.4,0.1-0.6,0.1c-0.4,0-0.7-0.1-1-0.4c-0.2-0.3-0.4-0.7-0.4-1.2v-8.6h4.2v-2.7h-4.2v-5h-2c-0.2,0-0.4,0.1-0.6,0.2
		c-0.1,0.1-0.2,0.3-0.3,0.5l-0.8,4.3l-2.5,0.4v1.5c0,0.3,0.1,0.5,0.2,0.6c0.1,0.1,0.3,0.2,0.5,0.2h1.6V47c0,1.4,0.4,2.4,1.1,3.2
		c0.7,0.8,1.8,1.2,3.2,1.2c0.8,0,1.5-0.1,2.2-0.4c0.7-0.2,1.4-0.6,1.9-1l-1.1-1.8C191.7,48,191.6,47.9,191.5,47.9z"/>
	<path class="st0" d="M209.4,39.8c-0.4-1-0.9-1.9-1.6-2.6c-0.7-0.7-1.5-1.2-2.5-1.6c-1-0.4-2-0.6-3.2-0.6c-1.2,0-2.3,0.2-3.2,0.6
		c-1,0.4-1.8,0.9-2.5,1.6c-0.7,0.7-1.2,1.5-1.6,2.6s-0.6,2.1-0.6,3.4c0,1.3,0.2,2.4,0.6,3.4c0.4,1,0.9,1.9,1.6,2.6
		c0.7,0.7,1.5,1.3,2.5,1.6c1,0.4,2,0.6,3.2,0.6c1.2,0,2.2-0.2,3.2-0.6c1-0.4,1.8-0.9,2.5-1.6c0.7-0.7,1.2-1.6,1.6-2.6
		c0.4-1,0.6-2.1,0.6-3.4C210,41.9,209.8,40.8,209.4,39.8z M205.1,47.1c-0.6,0.9-1.6,1.3-2.9,1.3c-1.3,0-2.3-0.4-3-1.3
		c-0.6-0.9-1-2.2-1-3.9c0-1.7,0.3-3,1-3.9c0.6-0.9,1.6-1.3,3-1.3c1.3,0,2.3,0.4,2.9,1.3s0.9,2.2,0.9,3.9S205.8,46.2,205.1,47.1z"/>
</g>
</svg>
