<?xml version="1.0" encoding="utf-8"?>
<!-- Generator: Adobe Illustrator 21.0.0, SVG Export Plug-In . SVG Version: 6.00 Build 0)  -->
<svg version="1.1" id="Lag_1" xmlns="http://www.w3.org/2000/svg" xmlns:xlink="http://www.w3.org/1999/xlink" x="0px" y="0px"
	 viewBox="0 0 40 40" style="enable-background:new 0 0 40 40;" xml:space="preserve">
<style type="text/css">
	.st0{fill:#565656;}
</style>
<g>
	<path class="st0" d="M18.6,19.6c-0.1-0.1-0.1-0.1-0.2-0.2c0-0.1-0.1-0.1-0.1,0c0,0.1-0.1,0.1-0.1,0.2c0.1,0,0.1,0.1,0.1,0.2
		c0,0.1-0.1,0.2-0.1,0.4l-0.1,0.1c-0.1,0.1,0,0.2,0.1,0.3c0.1,0,0.2,0,0.3,0c0.2,0,0.3,0.1,0.4,0.1c0.1,0,0.2,0.1,0.3,0
		c0.1-0.1,0.1-0.1,0-0.2C19,20.2,18.8,19.9,18.6,19.6z"/>
	<path class="st0" d="M33.8,27.2c0.1,0.1,0.2,0.1,0.3,0.2c0.1,0,0.1,0,0.2-0.1v-0.1c0-0.2,0-0.4-0.1-0.6C34,26.9,34,27.1,33.8,27.2z
		"/>
	<path class="st0" d="M35,1.4H5C3,1.4,1.4,3,1.5,5v30.1C1.5,37,3,38.6,5,38.6h30c2,0,3.6-1.6,3.5-3.7v-30C38.5,3,37,1.4,35,1.4z
		 M3.9,3.9h32.2V8H3.9V3.9z M14,33.1H4.6v-5.7H14V33.1z M14,25.6H4.6v-5.7H14V25.6z M14,18.1H4.6v-5.7H14V18.1z M25.6,31.6
		c-0.1-0.1-0.1-0.1,0-0.2c0.1-0.1,0.2-0.2,0.2-0.3c0.1-0.1,0-0.2-0.1-0.3c-0.2-0.1-0.4-0.1-0.6-0.1c0,0,0,0-0.1,0
		c-0.1-0.1-0.2-0.2-0.3-0.2c-0.1,0-0.1-0.1-0.1-0.1c0-0.5-0.3-1-0.6-1.4c0,0,0-0.1-0.1-0.1c0,0-0.1,0.1-0.1,0.1
		c-0.1,0.1-0.2,0.2-0.2,0.3c0,0.3,0.1,0.5,0.2,0.8c0.1,0.2,0.2,0.4,0.2,0.6s0,0.3-0.2,0.3c-0.1,0-0.2,0-0.3,0s-0.2,0-0.3,0.1
		c-0.1,0.2-0.2,0.4-0.3,0.6c-0.1,0.1-0.1,0.3-0.1,0.4v0.1c0.1,0,0.1,0,0.1,0c0.1-0.1,0.2-0.1,0.3-0.2c0.2-0.1,0.3-0.1,0.4,0.1
		c0.1,0.1,0.2,0.2,0.3,0.3c0.1,0.1,0.3,0.1,0.5,0.2h0.1v-0.1c-0.2-0.2-0.4-0.4-0.6-0.6c-0.1,0-0.1,0-0.2,0h-0.1c0,0,0,0,0.1-0.1
		c0.2-0.1,0.5-0.2,0.7,0c0.2,0.1,0.3,0.2,0.5,0.4c0,0,0,0.1,0.1,0.1c0.1,0.1,0.2,0.3,0.3,0.4c0.1,0.1,0.1,0.2,0.1,0.3
		c0,0.2-0.1,0.5-0.3,0.5c-0.1,0-0.2,0-0.3-0.1c-0.1-0.1-0.2-0.3-0.3-0.4s-0.1-0.1-0.2-0.2c-0.1,0-0.1,0-0.1,0.1c0,0.2,0,0.3,0,0.5
		c0,0.1,0,0.2,0,0.3c-0.1,0.1-0.1,0.1-0.2,0c-0.1-0.1-0.1-0.3-0.2-0.5c0-0.1-0.1-0.1-0.1-0.1c-0.1,0-0.1,0.1-0.2,0.1
		c-0.2,0.3-0.4,0.4-0.7,0.5c-0.2,0.1-0.4,0.1-0.6,0.1c-0.1,0-0.2,0-0.2-0.1c-0.3-0.2-0.6-0.4-0.9-0.5c-0.1,0-0.3-0.1-0.4-0.1
		c-0.3-0.1-0.5,0-0.7,0.1h-0.1c-0.1,0-0.2,0-0.2-0.1c0-0.1-0.1-0.2-0.1-0.3c0-0.4,0-0.8,0-1.2c0-0.6,0.1-1.2,0.1-1.8
		c0-0.2,0-0.4-0.1-0.6c-0.1-0.1-0.2-0.2-0.3-0.2c-0.2-0.1-0.4-0.3-0.5-0.5c-0.1-0.2-0.1-0.3-0.2-0.5c0,0,0-0.1-0.1-0.1V28
		c0,0.1,0,0.2,0,0.3c0,0.2,0,0.4-0.1,0.6c-0.1,0.1-0.1,0.2-0.3,0c-0.1-0.1-0.2-0.2-0.3-0.4c-0.1-0.1-0.2-0.2-0.4-0.2
		c0,0-0.1,0-0.1-0.1c0-0.1,0-0.1,0-0.2c0.2-0.3,0.3-0.6,0.3-1s0-0.9,0-1.3c0-0.2,0-0.3,0-0.4c0,0,0-0.1,0.1-0.1
		c0.1,0,0.1,0.1,0.1,0.1c0,0.2,0,0.4,0,0.7c0,0.2,0.2,0.2,0.3,0.2c0.2,0,0.3-0.2,0.3-0.3c0.1-0.1,0.1-0.3,0.1-0.4s0-0.3,0-0.4
		c0-0.1,0-0.2-0.1-0.3v-0.1c0-0.1-0.2-0.4-0.3-0.4c-0.1,0-0.3-0.1-0.4,0l-0.1,0.1c0-0.1,0-0.3,0-0.4c0-0.2,0-0.5,0-0.7
		s0-0.5,0.1-0.7c0-0.1,0.2-0.2,0.2-0.2s0.1,0,0,0.1c-0.1,0.2,0,0.3-0.1,0.5c0,0,0,0.1,0.1,0.1c0.1,0,0.1,0,0.1-0.1
		c0.1-0.2,0.2-0.4,0.2-0.6c0-0.1-0.1-0.2-0.2-0.2s-0.1,0,0-0.1V22h-0.1c-0.1,0-0.2,0.1-0.2,0.1c-0.1,0-0.1,0-0.1-0.1
		c0-0.6,0-0.7,0-0.9c0-0.2,0.1-0.4,0.1-0.5c0.1-0.1,0.1-0.2,0.1-0.3c0.1-0.2,0.2-0.4,0.3-0.6c0,0,0-0.1,0-0.1c0,0,0,0,0,0
		c0,0,0,0,0-0.1c0-0.2,0-0.4,0-0.6c0.1-0.3,0.2-0.7,0.4-0.9c0.2-0.3,0.5-0.6,0.7-0.8s0.5-0.4,0.8-0.5c0.1-0.1,0.3-0.1,0.4-0.1
		c0.2,0,0.3-0.1,0.5-0.1c0.2-0.1,0.4-0.1,0.7-0.1c0.4,0,0.7,0,1.1,0c0.4,0,0.8-0.2,1-0.5c0.3-0.3,0.4-0.6,0.6-1
		c0.2-0.4,0.4-0.7,0.6-1c0.2-0.2,0.5-0.4,0.8-0.5c0.3-0.1,0.5-0.2,0.8-0.3c0.1,0,0.2-0.1,0.3-0.2c0.3-0.2,0.5-0.4,0.8-0.6
		c0.1,0,0.1-0.1,0.2-0.1c0.1,0,0.1,0,0.1,0.1c0,0.2-0.1,0.3-0.2,0.4c-0.1,0.1-0.2,0.2-0.3,0.3c-0.2,0.2-0.2,0.5-0.1,0.7
		c0.2,0.5,0.3,0.9,0.3,1.4c0,0.3,0,0.7-0.2,1c-0.2,0.5-0.4,0.9-0.6,1.3c0,0.1-0.1,0.1-0.1,0.2c-0.1,0.1-0.2,0.1-0.3,0
		c-0.1,0-0.1-0.1-0.2-0.2c-0.1-0.1-0.1-0.1-0.2-0.2c-0.3-0.2-0.5,0-0.5,0.2c0,0.1,0,0.2,0.1,0.2c0.1,0.1,0.3,0.2,0.5,0.2
		c0.1,0,0.2,0.1,0.3,0.1c0,0,0.1,0,0.1,0.1c0,0.2,0.1,0.4,0.1,0.6c0,0.1,0,0.2,0,0.3V19c0,0.2,0,0.4,0,0.5s0,0.2,0,0.3
		c0,0.1,0,0.1-0.1,0.1c-0.1,0-0.3,0-0.4,0H26c0,0.1,0,0.1,0.1,0.1c0.1,0,0.1,0.1,0.2,0.1c0.1,0.1,0.1,0.1,0.2,0.2c0,0,0,0,0,0.1
		c0.1,0.2-0.1,0.4-0.2,0.6l-0.1,0.1l-0.1,0.1L26,21.3c0,0.1-0.1,0.1,0,0.2c0.1,0.1,0.2,0.1,0.3,0v-0.1c0-0.1,0.1-0.1,0.1-0.2v-0.1
		c0.1-0.1,0.1-0.2,0.1-0.3c0.1-0.1,0.3-0.1,0.3,0.1V21c0,0.1,0,0.1,0.1,0.1c0.1,0.1,0.2,0.1,0.3,0.1c0.2,0,0.4,0.1,0.6,0
		c0.1,0,0.3,0,0.4-0.1c0.2,0,0.4,0,0.6,0.3c0,0,0,0.1,0.1,0.1c0,0.1,0.1,0.1,0.1,0.2c0,0.1,0,0.2,0.1,0.3c0,0.1,0,0.2,0.1,0.3
		c0,0.1,0,0.2-0.1,0.3L29,22.7l-0.1,0.1c-0.1,0.1-0.2,0.1-0.2,0.3c0,0.1-0.1,0.1-0.1,0.2c-0.1,0.1-0.1,0.2-0.1,0.3
		c-0.1,0.1-0.1,0.2-0.1,0.3L28.3,24c-0.1,0-0.1,0-0.1-0.1c0-0.1,0-0.1,0-0.2c0-0.1,0-0.2-0.1-0.2c-0.1,0-0.1,0-0.1,0
		c-0.1,0-0.1,0.1-0.1,0.1c-0.1,0.1-0.1,0.2-0.1,0.3c-0.1,0.1-0.1,0.3-0.1,0.4c0,0-0.1,0.1-0.1,0c-0.1-0.3-0.1-0.6-0.1-0.9
		c0-0.1,0-0.1,0-0.1c0-0.1,0.1-0.2,0-0.3c0-0.2-0.2-0.2-0.3-0.1c-0.1,0.1-0.2,0.3-0.3,0.4c-0.1,0.2-0.2,0.5-0.3,0.8v0.1
		c-0.1,0.3,0,0.5,0.1,0.7c0,0.1,0,0.2,0,0.3c0,0,0,0.1-0.1,0.2c-0.1,0.2-0.1,0.5-0.3,0.7c-0.1-0.1-0.1,0-0.3-0.1
		c-0.1-0.1-0.2,0-0.3-0.1c-0.1,0-0.1,0-0.2,0s-0.2,0-0.3,0c-0.1,0-0.1,0-0.2,0c0,0.1,0,0.1,0,0.2c0,0.1,0.1,0.1,0.2,0.1
		c0.1,0,0.1,0,0.2,0c0.1,0,0.2,0,0.2,0.1c0.2,0.4,0,0.8-0.4,0.9c-0.3,0.1-0.5,0-0.8,0c-0.2,0-0.4-0.1-0.6-0.1h-0.1
		c0,0.1,0,0.1,0.1,0.1c0.2,0.1,0.5,0.2,0.7,0.4c0.1,0,0.1,0.1,0.2,0.1c0.1,0.1,0.1,0.2-0.1,0.3c-0.2,0.1-0.3,0.1-0.5,0.2
		c-0.2,0.1-0.3,0.1-0.5,0.3c0,0-0.1,0-0.1,0.1l0.1,0.1c0.1,0,0.2,0,0.3,0c0.1,0,0.1,0,0.1,0.1h0.1v-0.1c-0.1,0-0.2-0.1-0.2-0.1
		c-0.1,0-0.1-0.1,0-0.1l0.1-0.1c0.1,0,0.2-0.1,0.2,0c0.2,0.2,0.5,0.1,0.7,0c0.3,0.1,0.4,0,0.5,0c0.2-0.1,0.5-0.3,0.7-0.4
		c0.2-0.1,0.3-0.2,0.5-0.2c0.1,0,0.2,0.1,0.3,0.1c0.2,0.1,0.4,0.2,0.5,0.4c0.1,0.1,0.1,0.2,0,0.3c-0.1,0.1-0.2,0.1-0.2,0.2
		c-0.1,0.1-0.1,0.1,0,0.2c0.1,0.1,0.1,0.1,0.2,0.1c0.1,0.1,0.3,0,0.3-0.1c0.1-0.1,0.1-0.3,0.1-0.4c0-0.2,0-0.5,0-0.7v-0.1h0.1
		C28,27.9,28,28,28,28.1c0.1,0.2,0.2,0.5,0.2,0.7c0,0.1,0,0.2-0.1,0.2c-0.1,0,0,0.1,0,0.1c0.1,0.2,0.2,0.4,0.4,0.6
		c0.1,0.1,0.2,0.3,0.3,0.4c0,0,0,0,0,0.1c0,0,0,0-0.1,0c-0.1,0-0.2,0-0.3,0.1c-0.1,0.1,0,0.2,0,0.3c0,0.3,0.1,0.5,0.1,0.8
		c0,0.2-0.1,0.3-0.1,0.4l-0.1,0.1c-0.3,0.1-0.6,0.2-0.8,0.2c-0.1,0-0.2,0-0.3-0.1c-0.3-0.1-0.6-0.3-0.9-0.4c-0.1,0-0.1,0-0.2,0
		C26,31.7,25.8,31.8,25.6,31.6z M27.1,33.8c-0.1,0-0.2-0.1-0.3-0.2c-0.3-0.3-0.5-0.6-0.7-0.9c0,0,0,0,0-0.1v-0.1h0.1
		c0.2,0.1,0.4,0.3,0.5,0.4c0.1,0.1,0.1,0.1,0.2,0c0,0,0.1,0,0.1-0.1c0.1-0.1,0.1,0,0.2,0.1c0,0.2,0.1,0.3,0.3,0.3c0,0,0.1,0,0.1,0.1
		C27.5,33.6,27.3,33.8,27.1,33.8z M27.4,33c-0.1-0.1-0.1-0.2,0-0.2c0.1-0.1,0.2-0.2,0.3-0.3c0.1-0.1,0.1,0,0.1,0
		c0,0.1,0.1,0.3,0.1,0.4c0.2,0.2,0.1,0.3-0.1,0.3C27.7,33.2,27.5,33.1,27.4,33z M29.3,31.5c0,0.1-0.1,0.3-0.1,0.4
		c-0.1,0.4-0.3,0.7-0.4,1.1c-0.2,0.4-0.3,0.9-0.6,1.3c0,0,0,0.1-0.1,0.1c-0.1,0.1-0.2,0.1-0.2,0c0-0.1,0-0.1,0-0.3
		c0-0.2,0.1-0.4,0.2-0.7c0.2-0.6,0.5-1.1,0.8-1.6C29,31.7,29.1,31.5,29.3,31.5v-0.2C29.4,31.3,29.3,31.4,29.3,31.5z M36.6,27.7
		c0,0.2-0.1,0.3-0.3,0.4c-0.1,0-0.2,0-0.2-0.1s0-0.1,0-0.2c0-0.1,0-0.2-0.1-0.1c-0.1,0-0.3,0.1-0.4,0.1c-0.3,0.1-0.5,0.3-0.7,0.5
		c-0.1,0.2-0.2,0.3-0.2,0.5c0,0.1,0,0.2,0.2,0.3c0.1,0.1,0.3,0.1,0.4,0.2c0.2,0.2,0.4,0.3,0.6,0.6c0.1,0.2,0.1,0.3-0.1,0.4
		c-0.2,0.1-0.4,0.2-0.6,0.2c-0.2,0.1-0.4,0.1-0.6,0.2c-0.2,0.1-0.3,0.3-0.2,0.6c0,0.1,0.1,0.2,0.2,0.3c0.1,0.1,0.1,0.2,0,0.2
		c-0.1,0.1-0.1,0.2-0.1,0.3c0,0.1,0,0.2-0.1,0.3c-0.1,0.1-0.3,0.1-0.4,0.2c-0.2,0-0.4-0.1-0.6-0.2c-0.2-0.1-0.4-0.3-0.6-0.5
		c-0.1-0.1-0.1-0.1,0-0.3c0.1-0.2,0.1-0.4,0-0.6c-0.1-0.1-0.2-0.2-0.4-0.3c-0.3-0.1-0.6-0.1-0.9,0C31.1,31,31,31,30.9,31
		c-0.2,0-0.3,0-0.3-0.2c-0.1-0.1-0.1-0.3-0.1-0.4c-0.1-0.2-0.2-0.3-0.3-0.5c-0.1-0.2-0.1-0.2,0.1-0.3c0.2-0.1,0.2-0.3,0.2-0.5
		c0-0.2-0.2-0.4-0.3-0.5c-0.2-0.2-0.4-0.4-0.6-0.7c-0.1-0.1-0.2-0.3-0.1-0.4c0-0.1,0.1-0.1,0.2-0.1c0.1,0,0.1,0,0.2,0.1
		c0.1,0,0.1,0,0.2,0h0.1c0,0,0,0-0.1-0.1c-0.1,0-0.3-0.1-0.4-0.1c-0.3-0.1-0.3-0.3-0.1-0.5c0-0.1,0.1-0.1,0.2,0
		c0.1,0.1,0.1,0.1,0.2,0.2c0.2,0.1,0.3,0.1,0.4-0.1c0,0,0-0.1,0.1-0.1c0.1,0,0.1-0.1,0.2,0c0.1,0,0.1,0.1,0,0.2c0,0,0,0,0,0.1h0.1
		c0.2-0.1,0.5-0.2,0.7-0.3l0.1-0.1c0.1-0.1,0.1-0.2,0-0.3c0,0-0.1,0-0.1-0.1h0.1c0.1,0,0.3,0,0.4,0c0.1,0,0.2,0,0.3-0.1
		c0.1-0.1,0.1-0.1,0-0.2c-0.1-0.1-0.2-0.2-0.4-0.3c-0.2-0.1-0.5-0.2-0.7-0.3c-0.1-0.1-0.1-0.2-0.1-0.3c0-0.1,0.1,0,0.1,0
		c0.1,0.1,0.2,0.1,0.4,0.2c0.1,0,0.3,0,0.4,0c0.4,0,0.7,0,1.1,0c0.1,0,0.2,0.1,0.1,0.2c-0.1,0.2-0.2,0.3-0.3,0.3
		c-0.1,0.1-0.1,0.1-0.1,0.2s0,0.2,0,0.3c0,0.1-0.1,0.2-0.2,0.1h-0.1v0.1c0,0,0,0.1,0.1,0.1c0.3,0,0.5,0.2,0.6,0.4
		c0,0.1,0,0.2,0.1,0.3c0.1,0.1,0.1,0.1,0.2,0c0-0.1,0.1-0.2,0.1-0.3s0-0.1-0.1-0.2c-0.1,0-0.1-0.1-0.2-0.2c0-0.1,0-0.1,0-0.2
		c0.1,0,0.1,0,0.1,0c0.1,0.1,0.2,0.1,0.2-0.1c0-0.1,0.1-0.2,0.1-0.3c0-0.2,0-0.4,0.1-0.5v-0.1c0,0-0.1-0.1-0.2-0.1
		c-0.1,0-0.2,0-0.3,0h-0.1c0-0.1,0-0.1,0.1-0.1c0.2-0.1,0.4-0.3,0.6-0.4c0.3-0.2,0.5-0.3,0.7-0.6c0.1-0.1,0.2-0.1,0.3,0
		c0.3,0.1,0.6,0.1,0.9,0.2c0.1,0,0.3,0,0.4,0.1c0.1,0.1,0.2,0.2,0.1,0.4c-0.1,0.2-0.1,0.3-0.2,0.5C36,25.5,36,25.7,36,25.8
		c0.1,0.4,0.1,0.8,0.3,1.1c0,0.1,0.1,0.2,0.2,0.3C36.6,27.4,36.7,27.5,36.6,27.7z"/>
	<path class="st0" d="M24,28.8c-0.1,0.1-0.1,0.1-0.1,0.1c0,0,0,0,0.1,0V28.8z"/>
</g>
</svg>
